%
M48
M72
T01C0.0200
T02C0.0236
T03C0.0240
T04C0.0276
T05C0.0315
T06C0.0320
T07C0.0354
T08C0.0394
T09C0.0400
T10C0.1285
%
T01
X5100Y11150
X3350Y12900
X3100Y13650
X3850Y15900
X4350Y17150
X4850Y19150
X6350Y21150
X8600Y24900
X10850Y24650
X2100Y23900
X2100Y25900
T02
X3100Y24400
X12100Y26650
X21100Y23400
X22600Y23150
X17850Y15650
X19100Y13400
T03
X16100Y18150
X11350Y21150
X9850Y16150
X9600Y15650
X8600Y15150
T04
X5600Y15400
X5600Y16400
X6350Y5400
X6350Y4400
X7600Y3650
X8600Y3650
X20350Y15900
X20350Y16900
X4600Y28400
X3600Y28400
T05
X15600Y19150
X16600Y19150
X17600Y19150
X18600Y19150
X19600Y19150
X20600Y19150
X20850Y9400
X19850Y9400
X18850Y9400
X17850Y9400
X16850Y9400
X15850Y9400
X15350Y1150
X16350Y1150
X17350Y1150
X18350Y1150
X19350Y1150
X20350Y1150
X5600Y11650
X5600Y12650
X5600Y13650
X15850Y29150
X16850Y29150
X17850Y29150
X18850Y29150
X19850Y29150
X20850Y29150
T06
X21850Y24400
X22850Y24400
X14350Y24400
X13350Y24400
X11100Y22900
X10100Y22900
X9100Y22900
X8100Y22900
X7100Y22900
X6100Y22900
X5100Y22900
X4100Y22900
X4100Y25900
X5100Y25900
X6100Y25900
X7100Y25900
X8100Y25900
X9100Y25900
X10100Y25900
X11100Y25900
X10600Y20650
X10600Y19650
X10600Y18650
X10600Y17650
X10600Y16650
X10600Y15650
X10600Y14650
X10600Y13650
X10600Y12650
X10600Y11650
X10600Y10650
X10600Y9650
X10600Y8650
X10600Y7650
X7600Y7650
X7600Y8650
X7600Y9650
X7600Y10650
X7600Y11650
X7600Y12650
X7600Y13650
X7600Y14650
X7600Y15650
X7600Y16650
X7600Y17650
X7600Y18650
X7600Y19650
X7600Y20650
X13850Y6900
X14850Y6900
X23350Y6650
X24350Y6650
T07
X17850Y16900
X13850Y16900
X5600Y17650
X5600Y21650
X7600Y5400
X11600Y5400
T08
X4600Y5400
X4600Y4400
X4600Y3400
T09
X7600Y1400
X8600Y1400
X10350Y1400
X11350Y1400
X13850Y1650
X13850Y2650
X13850Y3650
X15850Y3650
X16850Y3650
X18350Y3650
X19350Y3650
X20850Y3650
X21850Y3650
X23350Y3650
X24350Y3650
X20850Y6150
X20850Y7150
X17600Y7400
X17600Y6400
X14100Y9650
X14100Y10650
X14100Y11650
X15850Y11650
X16850Y11650
X18350Y11650
X19350Y11650
X20600Y11650
X21600Y11650
X23100Y11650
X24100Y11650
X24350Y16400
X24350Y17400
X24350Y18400
X24600Y21650
X23600Y21650
X22100Y21650
X21100Y21650
X19600Y21650
X18600Y21650
X17100Y21650
X16100Y21650
X16350Y23900
X16350Y24900
X16100Y26900
X17100Y26900
X18600Y26900
X19600Y26900
X21100Y26900
X22100Y26900
X23600Y26900
X24600Y26900
X19350Y24650
X19350Y23650
X14100Y26650
X14100Y27650
X14100Y28650
X11600Y28900
X10600Y28900
X9600Y28900
X8100Y28900
X7100Y28900
X6100Y28900
X1350Y27650
X1350Y26650
X1350Y25400
X1350Y24400
X1350Y23150
X1350Y22150
X1350Y20900
X1350Y19900
X1350Y18650
X1350Y17650
X1350Y16400
X1350Y15400
X1350Y14150
X1350Y13150
X1350Y11900
X1350Y10900
X900Y9650
X800Y8650
X900Y7650
X800Y6650
X900Y5650
X800Y4650
X900Y3650
X800Y2650
X13850Y14750
X14850Y14650
X15850Y14750
X16850Y14650
X17850Y14750
X18850Y14650
X13850Y19650
X13850Y20650
X13850Y21650
T10
X1100Y1150
X24600Y1150
X24600Y29150
X1100Y29150
M30
