G75*
%MOIN*%
%OFA0B0*%
%FSLAX24Y24*%
%IPPOS*%
%LPD*%
%AMOC8*
5,1,8,0,0,1.08239X$1,22.5*
%
%ADD10C,0.0000*%
%ADD11R,0.0740X0.0740*%
%ADD12C,0.0740*%
%ADD13C,0.0650*%
%ADD14C,0.0560*%
%ADD15C,0.0640*%
%ADD16R,0.0660X0.0660*%
%ADD17C,0.0660*%
%ADD18C,0.0100*%
%ADD19C,0.0436*%
%ADD20C,0.0080*%
%ADD21C,0.0120*%
%ADD22C,0.0160*%
%ADD23C,0.0400*%
%ADD24C,0.0440*%
%ADD25C,0.0400*%
D10*
X000100Y000150D02*
X000100Y030150D01*
X025600Y030150D01*
X025600Y000150D01*
X023957Y001150D02*
X023959Y001200D01*
X023965Y001251D01*
X023975Y001300D01*
X023988Y001349D01*
X024006Y001396D01*
X024027Y001442D01*
X024052Y001486D01*
X024080Y001528D01*
X024111Y001568D01*
X024145Y001605D01*
X024182Y001639D01*
X024222Y001670D01*
X024264Y001698D01*
X024308Y001723D01*
X024354Y001744D01*
X024401Y001762D01*
X024450Y001775D01*
X024499Y001785D01*
X024550Y001791D01*
X024600Y001793D01*
X024650Y001791D01*
X024701Y001785D01*
X024750Y001775D01*
X024799Y001762D01*
X024846Y001744D01*
X024892Y001723D01*
X024936Y001698D01*
X024978Y001670D01*
X025018Y001639D01*
X025055Y001605D01*
X025089Y001568D01*
X025120Y001528D01*
X025148Y001486D01*
X025173Y001442D01*
X025194Y001396D01*
X025212Y001349D01*
X025225Y001300D01*
X025235Y001251D01*
X025241Y001200D01*
X025243Y001150D01*
X025241Y001100D01*
X025235Y001049D01*
X025225Y001000D01*
X025212Y000951D01*
X025194Y000904D01*
X025173Y000858D01*
X025148Y000814D01*
X025120Y000772D01*
X025089Y000732D01*
X025055Y000695D01*
X025018Y000661D01*
X024978Y000630D01*
X024936Y000602D01*
X024892Y000577D01*
X024846Y000556D01*
X024799Y000538D01*
X024750Y000525D01*
X024701Y000515D01*
X024650Y000509D01*
X024600Y000507D01*
X024550Y000509D01*
X024499Y000515D01*
X024450Y000525D01*
X024401Y000538D01*
X024354Y000556D01*
X024308Y000577D01*
X024264Y000602D01*
X024222Y000630D01*
X024182Y000661D01*
X024145Y000695D01*
X024111Y000732D01*
X024080Y000772D01*
X024052Y000814D01*
X024027Y000858D01*
X024006Y000904D01*
X023988Y000951D01*
X023975Y001000D01*
X023965Y001049D01*
X023959Y001100D01*
X023957Y001150D01*
X000457Y001150D02*
X000459Y001200D01*
X000465Y001251D01*
X000475Y001300D01*
X000488Y001349D01*
X000506Y001396D01*
X000527Y001442D01*
X000552Y001486D01*
X000580Y001528D01*
X000611Y001568D01*
X000645Y001605D01*
X000682Y001639D01*
X000722Y001670D01*
X000764Y001698D01*
X000808Y001723D01*
X000854Y001744D01*
X000901Y001762D01*
X000950Y001775D01*
X000999Y001785D01*
X001050Y001791D01*
X001100Y001793D01*
X001150Y001791D01*
X001201Y001785D01*
X001250Y001775D01*
X001299Y001762D01*
X001346Y001744D01*
X001392Y001723D01*
X001436Y001698D01*
X001478Y001670D01*
X001518Y001639D01*
X001555Y001605D01*
X001589Y001568D01*
X001620Y001528D01*
X001648Y001486D01*
X001673Y001442D01*
X001694Y001396D01*
X001712Y001349D01*
X001725Y001300D01*
X001735Y001251D01*
X001741Y001200D01*
X001743Y001150D01*
X001741Y001100D01*
X001735Y001049D01*
X001725Y001000D01*
X001712Y000951D01*
X001694Y000904D01*
X001673Y000858D01*
X001648Y000814D01*
X001620Y000772D01*
X001589Y000732D01*
X001555Y000695D01*
X001518Y000661D01*
X001478Y000630D01*
X001436Y000602D01*
X001392Y000577D01*
X001346Y000556D01*
X001299Y000538D01*
X001250Y000525D01*
X001201Y000515D01*
X001150Y000509D01*
X001100Y000507D01*
X001050Y000509D01*
X000999Y000515D01*
X000950Y000525D01*
X000901Y000538D01*
X000854Y000556D01*
X000808Y000577D01*
X000764Y000602D01*
X000722Y000630D01*
X000682Y000661D01*
X000645Y000695D01*
X000611Y000732D01*
X000580Y000772D01*
X000552Y000814D01*
X000527Y000858D01*
X000506Y000904D01*
X000488Y000951D01*
X000475Y001000D01*
X000465Y001049D01*
X000459Y001100D01*
X000457Y001150D01*
X000457Y029150D02*
X000459Y029200D01*
X000465Y029251D01*
X000475Y029300D01*
X000488Y029349D01*
X000506Y029396D01*
X000527Y029442D01*
X000552Y029486D01*
X000580Y029528D01*
X000611Y029568D01*
X000645Y029605D01*
X000682Y029639D01*
X000722Y029670D01*
X000764Y029698D01*
X000808Y029723D01*
X000854Y029744D01*
X000901Y029762D01*
X000950Y029775D01*
X000999Y029785D01*
X001050Y029791D01*
X001100Y029793D01*
X001150Y029791D01*
X001201Y029785D01*
X001250Y029775D01*
X001299Y029762D01*
X001346Y029744D01*
X001392Y029723D01*
X001436Y029698D01*
X001478Y029670D01*
X001518Y029639D01*
X001555Y029605D01*
X001589Y029568D01*
X001620Y029528D01*
X001648Y029486D01*
X001673Y029442D01*
X001694Y029396D01*
X001712Y029349D01*
X001725Y029300D01*
X001735Y029251D01*
X001741Y029200D01*
X001743Y029150D01*
X001741Y029100D01*
X001735Y029049D01*
X001725Y029000D01*
X001712Y028951D01*
X001694Y028904D01*
X001673Y028858D01*
X001648Y028814D01*
X001620Y028772D01*
X001589Y028732D01*
X001555Y028695D01*
X001518Y028661D01*
X001478Y028630D01*
X001436Y028602D01*
X001392Y028577D01*
X001346Y028556D01*
X001299Y028538D01*
X001250Y028525D01*
X001201Y028515D01*
X001150Y028509D01*
X001100Y028507D01*
X001050Y028509D01*
X000999Y028515D01*
X000950Y028525D01*
X000901Y028538D01*
X000854Y028556D01*
X000808Y028577D01*
X000764Y028602D01*
X000722Y028630D01*
X000682Y028661D01*
X000645Y028695D01*
X000611Y028732D01*
X000580Y028772D01*
X000552Y028814D01*
X000527Y028858D01*
X000506Y028904D01*
X000488Y028951D01*
X000475Y029000D01*
X000465Y029049D01*
X000459Y029100D01*
X000457Y029150D01*
X023957Y029150D02*
X023959Y029200D01*
X023965Y029251D01*
X023975Y029300D01*
X023988Y029349D01*
X024006Y029396D01*
X024027Y029442D01*
X024052Y029486D01*
X024080Y029528D01*
X024111Y029568D01*
X024145Y029605D01*
X024182Y029639D01*
X024222Y029670D01*
X024264Y029698D01*
X024308Y029723D01*
X024354Y029744D01*
X024401Y029762D01*
X024450Y029775D01*
X024499Y029785D01*
X024550Y029791D01*
X024600Y029793D01*
X024650Y029791D01*
X024701Y029785D01*
X024750Y029775D01*
X024799Y029762D01*
X024846Y029744D01*
X024892Y029723D01*
X024936Y029698D01*
X024978Y029670D01*
X025018Y029639D01*
X025055Y029605D01*
X025089Y029568D01*
X025120Y029528D01*
X025148Y029486D01*
X025173Y029442D01*
X025194Y029396D01*
X025212Y029349D01*
X025225Y029300D01*
X025235Y029251D01*
X025241Y029200D01*
X025243Y029150D01*
X025241Y029100D01*
X025235Y029049D01*
X025225Y029000D01*
X025212Y028951D01*
X025194Y028904D01*
X025173Y028858D01*
X025148Y028814D01*
X025120Y028772D01*
X025089Y028732D01*
X025055Y028695D01*
X025018Y028661D01*
X024978Y028630D01*
X024936Y028602D01*
X024892Y028577D01*
X024846Y028556D01*
X024799Y028538D01*
X024750Y028525D01*
X024701Y028515D01*
X024650Y028509D01*
X024600Y028507D01*
X024550Y028509D01*
X024499Y028515D01*
X024450Y028525D01*
X024401Y028538D01*
X024354Y028556D01*
X024308Y028577D01*
X024264Y028602D01*
X024222Y028630D01*
X024182Y028661D01*
X024145Y028695D01*
X024111Y028732D01*
X024080Y028772D01*
X024052Y028814D01*
X024027Y028858D01*
X024006Y028904D01*
X023988Y028951D01*
X023975Y029000D01*
X023965Y029049D01*
X023959Y029100D01*
X023957Y029150D01*
D11*
X023600Y026900D03*
X021100Y026900D03*
X019350Y024650D03*
X018600Y026900D03*
X016100Y026900D03*
X016350Y023900D03*
X017100Y021650D03*
X019600Y021650D03*
X022100Y021650D03*
X024600Y021650D03*
X024350Y016400D03*
X024100Y011650D03*
X021600Y011650D03*
X019350Y011650D03*
X016850Y011650D03*
X020850Y007150D03*
X021850Y003650D03*
X019350Y003650D03*
X016850Y003650D03*
X017600Y006400D03*
X024350Y003650D03*
X010350Y001400D03*
X007600Y001400D03*
X004600Y003400D03*
X000800Y002650D03*
X001350Y011900D03*
X001350Y014150D03*
X001350Y016400D03*
X001350Y018650D03*
X001350Y020900D03*
X001350Y023150D03*
X001350Y025400D03*
X001350Y027650D03*
X008100Y028900D03*
X011600Y028900D03*
D12*
X010600Y028900D03*
X009600Y028900D03*
X007100Y028900D03*
X006100Y028900D03*
X001350Y026650D03*
X001350Y024400D03*
X001350Y022150D03*
X001350Y019900D03*
X001350Y017650D03*
X001350Y015400D03*
X001350Y013150D03*
X001350Y010900D03*
X000900Y009650D03*
X000800Y008650D03*
X000900Y007650D03*
X000800Y006650D03*
X000900Y005650D03*
X000800Y004650D03*
X000900Y003650D03*
X004600Y004400D03*
X004600Y005400D03*
X007600Y005400D03*
X008600Y001400D03*
X011350Y001400D03*
X011600Y005400D03*
X013850Y006900D03*
X014850Y006900D03*
X015850Y003650D03*
X018350Y003650D03*
X020850Y003650D03*
X020850Y006150D03*
X023350Y006650D03*
X024350Y006650D03*
X023350Y003650D03*
X017600Y007400D03*
X018350Y011650D03*
X020600Y011650D03*
X023100Y011650D03*
X018850Y014650D03*
X017850Y014750D03*
X016850Y014650D03*
X015850Y014750D03*
X014850Y014650D03*
X013850Y014750D03*
X013850Y016900D03*
X017850Y016900D03*
X018600Y021650D03*
X019350Y023650D03*
X021100Y021650D03*
X021850Y024400D03*
X022850Y024400D03*
X022100Y026900D03*
X019600Y026900D03*
X017100Y026900D03*
X016350Y024900D03*
X014350Y024400D03*
X013350Y024400D03*
X016100Y021650D03*
X023600Y021650D03*
X024350Y018400D03*
X024350Y017400D03*
X024600Y026900D03*
X015850Y011650D03*
X005600Y011650D03*
X005600Y012650D03*
X005600Y013650D03*
X005600Y017650D03*
X005600Y021650D03*
D13*
X005600Y016400D03*
X005600Y015400D03*
X006350Y005400D03*
X006350Y004400D03*
X007600Y003650D03*
X008600Y003650D03*
X020350Y015900D03*
X020350Y016900D03*
X004600Y028400D03*
X003600Y028400D03*
D14*
X004100Y026180D02*
X004100Y025620D01*
X005100Y025620D02*
X005100Y026180D01*
X006100Y026180D02*
X006100Y025620D01*
X007100Y025620D02*
X007100Y026180D01*
X008100Y026180D02*
X008100Y025620D01*
X009100Y025620D02*
X009100Y026180D01*
X010100Y026180D02*
X010100Y025620D01*
X011100Y025620D02*
X011100Y026180D01*
X011100Y023180D02*
X011100Y022620D01*
X010100Y022620D02*
X010100Y023180D01*
X009100Y023180D02*
X009100Y022620D01*
X008100Y022620D02*
X008100Y023180D01*
X007100Y023180D02*
X007100Y022620D01*
X006100Y022620D02*
X006100Y023180D01*
X005100Y023180D02*
X005100Y022620D01*
X004100Y022620D02*
X004100Y023180D01*
X007320Y020650D02*
X007880Y020650D01*
X007880Y019650D02*
X007320Y019650D01*
X007320Y018650D02*
X007880Y018650D01*
X007880Y017650D02*
X007320Y017650D01*
X007320Y016650D02*
X007880Y016650D01*
X007880Y015650D02*
X007320Y015650D01*
X007320Y014650D02*
X007880Y014650D01*
X007880Y013650D02*
X007320Y013650D01*
X007320Y012650D02*
X007880Y012650D01*
X007880Y011650D02*
X007320Y011650D01*
X007320Y010650D02*
X007880Y010650D01*
X007880Y009650D02*
X007320Y009650D01*
X007320Y008650D02*
X007880Y008650D01*
X007880Y007650D02*
X007320Y007650D01*
X006350Y005400D02*
X004600Y005400D01*
X004600Y004400D02*
X006350Y004400D01*
X006600Y003650D01*
X007600Y003650D01*
X007600Y001400D01*
X008350Y000650D02*
X008600Y000900D01*
X008600Y001400D01*
X008600Y003650D01*
X008350Y000650D02*
X006350Y000650D01*
X004600Y002400D01*
X004600Y003400D01*
X010320Y007650D02*
X010880Y007650D01*
X010880Y008650D02*
X010320Y008650D01*
X010320Y009650D02*
X010880Y009650D01*
X010880Y010650D02*
X010320Y010650D01*
X010320Y011650D02*
X010880Y011650D01*
X010880Y012650D02*
X010320Y012650D01*
X010320Y013650D02*
X010880Y013650D01*
X010880Y014650D02*
X010320Y014650D01*
X010320Y015650D02*
X010880Y015650D01*
X010880Y016650D02*
X010320Y016650D01*
X010320Y017650D02*
X010880Y017650D01*
X010880Y018650D02*
X010320Y018650D01*
X010320Y019650D02*
X010880Y019650D01*
X010880Y020650D02*
X010320Y020650D01*
D15*
X013530Y020650D02*
X014170Y020650D01*
X014170Y021650D02*
X013530Y021650D01*
X013530Y019650D02*
X014170Y019650D01*
X014420Y026650D02*
X013780Y026650D01*
X013780Y027650D02*
X014420Y027650D01*
X014420Y028650D02*
X013780Y028650D01*
X013780Y011650D02*
X014420Y011650D01*
X014420Y010650D02*
X013780Y010650D01*
X013780Y009650D02*
X014420Y009650D01*
X014170Y003650D02*
X013530Y003650D01*
X013530Y002650D02*
X014170Y002650D01*
X014170Y001650D02*
X013530Y001650D01*
D16*
X020350Y001150D03*
X020850Y009400D03*
X020600Y019150D03*
X020850Y029150D03*
D17*
X019850Y029150D03*
X018850Y029150D03*
X017850Y029150D03*
X016850Y029150D03*
X015850Y029150D03*
X015600Y019150D03*
X016600Y019150D03*
X017600Y019150D03*
X018600Y019150D03*
X019600Y019150D03*
X019850Y009400D03*
X018850Y009400D03*
X017850Y009400D03*
X016850Y009400D03*
X015850Y009400D03*
X015350Y001150D03*
X016350Y001150D03*
X017350Y001150D03*
X018350Y001150D03*
X019350Y001150D03*
D18*
X020100Y001400D02*
X020350Y001150D01*
X020100Y001400D02*
X020100Y005900D01*
X020350Y006150D01*
X020850Y006150D01*
X020600Y006150D01*
X020100Y006650D01*
X020100Y007650D01*
X019850Y007400D01*
X017600Y007400D01*
X017850Y009400D02*
X018350Y009900D01*
X018350Y011650D01*
X019100Y013400D02*
X019850Y014150D01*
X019850Y014900D01*
X019100Y015650D01*
X017850Y015650D01*
X016850Y014650D02*
X016850Y017400D01*
X016100Y018150D01*
X015600Y018650D02*
X020600Y018650D01*
X020850Y018650D01*
X022850Y020650D01*
X022850Y022900D01*
X022600Y023150D01*
X021850Y023650D02*
X021850Y024400D01*
X021850Y023650D02*
X021600Y022900D01*
X021350Y022400D01*
X022100Y021650D01*
X021350Y022400D02*
X020850Y022400D01*
X020100Y021650D01*
X019600Y021650D01*
X018600Y021650D02*
X018600Y020150D01*
X017600Y019150D01*
X016600Y019150D02*
X016100Y019650D01*
X016100Y021650D01*
X015100Y022650D02*
X013850Y021650D01*
X012850Y020900D01*
X012850Y015650D01*
X013850Y014900D01*
X013850Y014750D01*
X013850Y011900D01*
X014100Y011650D01*
X014100Y010650D02*
X015100Y009900D01*
X015100Y007150D01*
X014850Y006900D01*
X012850Y008150D02*
X012850Y002400D01*
X013850Y001650D01*
X013850Y002650D02*
X015600Y004400D01*
X016850Y004400D01*
X018850Y004400D01*
X019350Y003650D01*
X018350Y003650D02*
X018350Y002150D01*
X017350Y001150D01*
X016350Y001150D02*
X015850Y001650D01*
X015850Y003650D01*
X016850Y003650D02*
X016850Y004400D01*
X020100Y007650D02*
X020850Y008400D01*
X020850Y009400D01*
X022350Y011150D01*
X022350Y016400D01*
X022350Y017150D01*
X020600Y019150D01*
X020600Y018650D01*
X020350Y023400D02*
X019600Y023400D01*
X019350Y023650D01*
X019100Y023650D01*
X018600Y024150D01*
X018600Y024900D01*
X016350Y024900D01*
X015600Y024400D02*
X015600Y026650D01*
X016100Y026900D01*
X017100Y026900D02*
X017100Y028900D01*
X016850Y029150D01*
X015850Y029150D02*
X013100Y029150D01*
X012850Y028900D01*
X012850Y024650D01*
X013100Y024400D01*
X013350Y024400D01*
X015100Y022650D02*
X015100Y027900D01*
X014100Y028650D01*
X015600Y024400D02*
X016350Y023900D01*
X019600Y026900D02*
X019600Y027400D01*
X017850Y029150D01*
X018850Y029150D02*
X019350Y029650D01*
X022100Y029650D01*
X022100Y026900D01*
X020350Y028400D02*
X020350Y023400D01*
X021100Y023400D01*
X020350Y028400D02*
X020850Y029150D01*
X015600Y018650D02*
X013850Y016900D01*
X010600Y017650D02*
X009600Y018650D01*
X007600Y018650D02*
X009850Y016400D01*
X009850Y016150D01*
X009600Y015650D02*
X009600Y014650D01*
X010600Y013650D01*
X010600Y012650D01*
X008350Y014900D02*
X008350Y006150D01*
X007600Y005400D01*
X010100Y008150D02*
X012850Y008150D01*
X011350Y009400D02*
X011350Y021150D01*
X010850Y020900D02*
X010600Y020650D01*
X007850Y016650D02*
X007600Y016650D01*
X007850Y016650D02*
X009350Y015150D01*
X009350Y008900D01*
X010100Y008150D01*
X010600Y008650D02*
X011350Y009400D01*
X015850Y010400D02*
X015850Y011650D01*
X015850Y010400D02*
X016850Y009400D01*
X018850Y009400D02*
X020600Y011150D01*
X020600Y011650D01*
X023350Y006650D02*
X023350Y005150D01*
X023100Y004900D01*
X024350Y003650D01*
X023100Y004900D02*
X021850Y003650D01*
X008600Y015150D02*
X008350Y014900D01*
D19*
X003100Y024400D03*
X012100Y026650D03*
X021100Y023400D03*
X022600Y023150D03*
X017850Y015650D03*
X019100Y013400D03*
D20*
X022350Y016400D02*
X024350Y016400D01*
X012350Y028650D02*
X012350Y029150D01*
X011850Y029650D01*
X002100Y029650D01*
X002100Y028400D01*
X001350Y027650D01*
X001350Y026650D02*
X000600Y025900D01*
X000600Y023650D01*
X000600Y021400D01*
X000600Y019150D01*
X000600Y016900D01*
X000600Y014650D01*
X000600Y012400D01*
X001350Y013150D01*
X000600Y012400D02*
X000600Y011650D01*
X001350Y010900D01*
X002100Y008650D02*
X002100Y023900D01*
X002100Y024400D02*
X002100Y025900D01*
X002100Y024400D02*
X002600Y023900D01*
X002600Y013650D01*
X003350Y012900D01*
X003100Y013650D02*
X003100Y015650D01*
X003600Y016150D01*
X003600Y024400D01*
X005100Y025900D01*
X005600Y027400D02*
X005600Y022400D01*
X004850Y021650D01*
X004850Y019150D01*
X006350Y021150D02*
X006350Y022650D01*
X006100Y022900D01*
X005100Y022900D02*
X004350Y022150D01*
X004350Y017150D01*
X003850Y015900D02*
X003850Y022650D01*
X004100Y022900D01*
X001350Y022150D02*
X000600Y021400D01*
X001350Y019900D02*
X000600Y019150D01*
X001350Y017650D02*
X000600Y016900D01*
X001350Y015400D02*
X000600Y014650D01*
X004350Y013400D02*
X006600Y015650D01*
X006600Y020400D01*
X006850Y020650D01*
X006850Y021650D01*
X007600Y022400D01*
X007600Y024400D01*
X009100Y025900D01*
X008600Y024900D02*
X008600Y020150D01*
X007100Y020150D01*
X006850Y019900D01*
X006850Y016400D01*
X007600Y015650D01*
X009600Y018650D02*
X009600Y028900D01*
X008100Y028900D02*
X008100Y025900D01*
X007100Y025900D01*
X005600Y027400D02*
X007100Y028900D01*
X011100Y024900D02*
X010850Y024650D01*
X011100Y024900D02*
X011100Y025900D01*
X012100Y026650D02*
X012100Y022900D01*
X010850Y021650D01*
X010850Y020900D01*
X010100Y022900D02*
X011600Y024400D01*
X011600Y027900D01*
X012350Y028650D01*
X001350Y024400D02*
X000600Y023650D01*
X004350Y013400D02*
X004350Y009650D01*
X007600Y009650D01*
X007600Y008650D02*
X002100Y008650D01*
X001600Y007650D02*
X001600Y005400D01*
X000850Y004650D01*
X000800Y004650D01*
X001600Y007650D02*
X007600Y007650D01*
X007600Y010650D02*
X005100Y010650D01*
X005100Y011150D01*
D21*
X003100Y024400D02*
X003100Y027150D01*
X003600Y027650D01*
X003600Y028400D01*
X004600Y028400D02*
X004600Y027650D01*
X004100Y027150D01*
X004100Y025900D01*
D22*
X011600Y005400D02*
X010600Y004400D01*
X008100Y004400D01*
X007600Y003650D01*
D23*
X007600Y011650D02*
X005600Y011650D01*
X005600Y013650D02*
X006350Y013650D01*
X007350Y012650D01*
X007600Y012650D01*
D24*
X008600Y015150D03*
X009600Y015650D03*
X009850Y016150D03*
X011350Y021150D03*
X016100Y018150D03*
D25*
X010850Y024650D03*
X008600Y024900D03*
X006350Y021150D03*
X004850Y019150D03*
X004350Y017150D03*
X003850Y015900D03*
X003100Y013650D03*
X003350Y012900D03*
X005100Y011150D03*
X002100Y023900D03*
X002100Y025900D03*
M02*
