G75*
%MOIN*%
%OFA0B0*%
%FSLAX24Y24*%
%IPPOS*%
%LPD*%
%AMOC8*
5,1,8,0,0,1.08239X$1,22.5*
%
%ADD10C,0.1365*%
%ADD11R,0.0820X0.0820*%
%ADD12C,0.0820*%
%ADD13C,0.0730*%
%ADD14C,0.0640*%
%ADD15C,0.0720*%
%ADD16R,0.0740X0.0740*%
%ADD17C,0.0740*%
D10*
X001100Y001150D03*
X024600Y001150D03*
X024600Y029150D03*
X001100Y029150D03*
D11*
X001350Y027650D03*
X001350Y025400D03*
X001350Y023150D03*
X001350Y020900D03*
X001350Y018650D03*
X001350Y016400D03*
X001350Y014150D03*
X001350Y011900D03*
X004600Y003400D03*
X007600Y001400D03*
X010350Y001400D03*
X016850Y003650D03*
X019350Y003650D03*
X017600Y006400D03*
X020850Y007150D03*
X021850Y003650D03*
X024350Y003650D03*
X024100Y011650D03*
X021600Y011650D03*
X019350Y011650D03*
X016850Y011650D03*
X024350Y016400D03*
X024600Y021650D03*
X022100Y021650D03*
X019600Y021650D03*
X017100Y021650D03*
X016350Y023900D03*
X016100Y026900D03*
X018600Y026900D03*
X019350Y024650D03*
X021100Y026900D03*
X023600Y026900D03*
X011600Y028900D03*
X008100Y028900D03*
X000800Y002650D03*
D12*
X000900Y003650D03*
X000800Y004650D03*
X000900Y005650D03*
X000800Y006650D03*
X000900Y007650D03*
X000800Y008650D03*
X000900Y009650D03*
X001350Y010900D03*
X001350Y013150D03*
X001350Y015400D03*
X001350Y017650D03*
X001350Y019900D03*
X001350Y022150D03*
X001350Y024400D03*
X001350Y026650D03*
X005600Y021650D03*
X005600Y017650D03*
X005600Y013650D03*
X005600Y012650D03*
X005600Y011650D03*
X004600Y005400D03*
X004600Y004400D03*
X007600Y005400D03*
X008600Y001400D03*
X011350Y001400D03*
X011600Y005400D03*
X013850Y006900D03*
X014850Y006900D03*
X015850Y003650D03*
X018350Y003650D03*
X020850Y003650D03*
X020850Y006150D03*
X023350Y006650D03*
X024350Y006650D03*
X023350Y003650D03*
X017600Y007400D03*
X018350Y011650D03*
X020600Y011650D03*
X023100Y011650D03*
X018850Y014650D03*
X017850Y014750D03*
X016850Y014650D03*
X015850Y014750D03*
X014850Y014650D03*
X013850Y014750D03*
X013850Y016900D03*
X017850Y016900D03*
X018600Y021650D03*
X019350Y023650D03*
X021100Y021650D03*
X021850Y024400D03*
X022850Y024400D03*
X022100Y026900D03*
X019600Y026900D03*
X017100Y026900D03*
X016350Y024900D03*
X014350Y024400D03*
X013350Y024400D03*
X016100Y021650D03*
X010600Y028900D03*
X009600Y028900D03*
X007100Y028900D03*
X006100Y028900D03*
X015850Y011650D03*
X024350Y017400D03*
X024350Y018400D03*
X023600Y021650D03*
X024600Y026900D03*
D13*
X020350Y016900D03*
X020350Y015900D03*
X008600Y003650D03*
X007600Y003650D03*
X006350Y004400D03*
X006350Y005400D03*
X005600Y015400D03*
X005600Y016400D03*
X004600Y028400D03*
X003600Y028400D03*
D14*
X004100Y026180D02*
X004100Y025620D01*
X005100Y025620D02*
X005100Y026180D01*
X006100Y026180D02*
X006100Y025620D01*
X007100Y025620D02*
X007100Y026180D01*
X008100Y026180D02*
X008100Y025620D01*
X009100Y025620D02*
X009100Y026180D01*
X010100Y026180D02*
X010100Y025620D01*
X011100Y025620D02*
X011100Y026180D01*
X011100Y023180D02*
X011100Y022620D01*
X010100Y022620D02*
X010100Y023180D01*
X009100Y023180D02*
X009100Y022620D01*
X008100Y022620D02*
X008100Y023180D01*
X007100Y023180D02*
X007100Y022620D01*
X006100Y022620D02*
X006100Y023180D01*
X005100Y023180D02*
X005100Y022620D01*
X004100Y022620D02*
X004100Y023180D01*
X007320Y020650D02*
X007880Y020650D01*
X007880Y019650D02*
X007320Y019650D01*
X007320Y018650D02*
X007880Y018650D01*
X007880Y017650D02*
X007320Y017650D01*
X007320Y016650D02*
X007880Y016650D01*
X007880Y015650D02*
X007320Y015650D01*
X007320Y014650D02*
X007880Y014650D01*
X007880Y013650D02*
X007320Y013650D01*
X007320Y012650D02*
X007880Y012650D01*
X007880Y011650D02*
X007320Y011650D01*
X007320Y010650D02*
X007880Y010650D01*
X007880Y009650D02*
X007320Y009650D01*
X007320Y008650D02*
X007880Y008650D01*
X007880Y007650D02*
X007320Y007650D01*
X010320Y007650D02*
X010880Y007650D01*
X010880Y008650D02*
X010320Y008650D01*
X010320Y009650D02*
X010880Y009650D01*
X010880Y010650D02*
X010320Y010650D01*
X010320Y011650D02*
X010880Y011650D01*
X010880Y012650D02*
X010320Y012650D01*
X010320Y013650D02*
X010880Y013650D01*
X010880Y014650D02*
X010320Y014650D01*
X010320Y015650D02*
X010880Y015650D01*
X010880Y016650D02*
X010320Y016650D01*
X010320Y017650D02*
X010880Y017650D01*
X010880Y018650D02*
X010320Y018650D01*
X010320Y019650D02*
X010880Y019650D01*
X010880Y020650D02*
X010320Y020650D01*
D15*
X013530Y020650D02*
X014170Y020650D01*
X014170Y021650D02*
X013530Y021650D01*
X013530Y019650D02*
X014170Y019650D01*
X014420Y026650D02*
X013780Y026650D01*
X013780Y027650D02*
X014420Y027650D01*
X014420Y028650D02*
X013780Y028650D01*
X013780Y011650D02*
X014420Y011650D01*
X014420Y010650D02*
X013780Y010650D01*
X013780Y009650D02*
X014420Y009650D01*
X014170Y003650D02*
X013530Y003650D01*
X013530Y002650D02*
X014170Y002650D01*
X014170Y001650D02*
X013530Y001650D01*
D16*
X020350Y001150D03*
X020850Y009400D03*
X020600Y019150D03*
X020850Y029150D03*
D17*
X019850Y029150D03*
X018850Y029150D03*
X017850Y029150D03*
X016850Y029150D03*
X015850Y029150D03*
X015600Y019150D03*
X016600Y019150D03*
X017600Y019150D03*
X018600Y019150D03*
X019600Y019150D03*
X019850Y009400D03*
X018850Y009400D03*
X017850Y009400D03*
X016850Y009400D03*
X015850Y009400D03*
X015350Y001150D03*
X016350Y001150D03*
X017350Y001150D03*
X018350Y001150D03*
X019350Y001150D03*
M02*
