G75*
%MOIN*%
%OFA0B0*%
%FSLAX24Y24*%
%IPPOS*%
%LPD*%
%AMOC8*
5,1,8,0,0,1.08239X$1,22.5*
%
%ADD10C,0.0000*%
%ADD11C,0.0040*%
%ADD12C,0.0100*%
%ADD13C,0.0060*%
%ADD14C,0.0030*%
%ADD15C,0.0020*%
%ADD16C,0.0050*%
%ADD17C,0.0080*%
%ADD18C,0.0200*%
%ADD19R,0.0300X0.4200*%
%ADD20R,0.0200X0.0750*%
%ADD21R,0.0200X0.0300*%
%ADD22C,0.0010*%
%ADD23C,0.0120*%
D10*
X000100Y000150D02*
X025600Y000150D01*
D11*
X020967Y005430D02*
X020620Y005430D01*
X020793Y005257D02*
X020793Y005604D01*
X022120Y005873D02*
X022120Y006133D01*
X022206Y006220D01*
X022380Y006220D01*
X022467Y006133D01*
X022467Y005873D01*
X022640Y005873D02*
X022120Y005873D01*
X022467Y006047D02*
X022640Y006220D01*
X022553Y006389D02*
X022467Y006475D01*
X022467Y006736D01*
X022380Y006736D02*
X022640Y006736D01*
X022640Y006475D01*
X022553Y006389D01*
X022293Y006475D02*
X022293Y006649D01*
X022380Y006736D01*
X022293Y006904D02*
X022553Y006904D01*
X022640Y006991D01*
X022553Y007078D01*
X022640Y007165D01*
X022553Y007251D01*
X022293Y007251D01*
X024870Y011680D02*
X025217Y011680D01*
X024323Y013670D02*
X024323Y014130D01*
X024093Y013900D01*
X024400Y013900D01*
X023939Y013670D02*
X023632Y013670D01*
X023786Y013670D02*
X023786Y014130D01*
X023632Y013977D01*
X023479Y014130D02*
X023172Y013670D01*
X023018Y013670D02*
X022712Y013670D01*
X023018Y013977D01*
X023018Y014054D01*
X022942Y014130D01*
X022788Y014130D01*
X022712Y014054D01*
X022939Y014420D02*
X023093Y014420D01*
X023169Y014497D01*
X023323Y014497D02*
X023400Y014573D01*
X023630Y014573D01*
X023630Y014650D02*
X023630Y014420D01*
X023400Y014420D01*
X023323Y014497D01*
X023400Y014727D02*
X023553Y014727D01*
X023630Y014650D01*
X023783Y014727D02*
X023937Y014727D01*
X023860Y014804D02*
X023860Y014497D01*
X023937Y014420D01*
X024551Y014420D02*
X024551Y014880D01*
X024781Y014880D01*
X024858Y014804D01*
X024858Y014650D01*
X024781Y014573D01*
X024551Y014573D01*
X024704Y014573D02*
X024858Y014420D01*
X025011Y014497D02*
X025088Y014420D01*
X025241Y014420D01*
X025318Y014497D01*
X025318Y014573D01*
X025241Y014650D01*
X025165Y014650D01*
X025241Y014650D02*
X025318Y014727D01*
X025318Y014804D01*
X025241Y014880D01*
X025088Y014880D01*
X025011Y014804D01*
X023169Y014804D02*
X023093Y014880D01*
X022939Y014880D01*
X022863Y014804D01*
X022863Y014497D01*
X022939Y014420D01*
X022709Y014727D02*
X022632Y014727D01*
X022479Y014573D01*
X022479Y014420D02*
X022479Y014727D01*
X022325Y014650D02*
X022325Y014573D01*
X022018Y014573D01*
X022018Y014497D02*
X022018Y014650D01*
X022095Y014727D01*
X022249Y014727D01*
X022325Y014650D01*
X022249Y014420D02*
X022095Y014420D01*
X022018Y014497D01*
X021865Y014420D02*
X021788Y014497D01*
X021788Y014804D01*
X021712Y014727D02*
X021865Y014727D01*
X021558Y014650D02*
X021558Y014420D01*
X021558Y014650D02*
X021481Y014727D01*
X021251Y014727D01*
X021251Y014420D01*
X021098Y014420D02*
X021098Y014727D01*
X021098Y014420D02*
X020868Y014420D01*
X020791Y014497D01*
X020791Y014727D01*
X020637Y014650D02*
X020637Y014497D01*
X020561Y014420D01*
X020407Y014420D01*
X020330Y014497D01*
X020330Y014650D01*
X020407Y014727D01*
X020561Y014727D01*
X020637Y014650D01*
X020177Y014497D02*
X020100Y014420D01*
X019947Y014420D01*
X019870Y014497D01*
X019870Y014804D01*
X019947Y014880D01*
X020100Y014880D01*
X020177Y014804D01*
X020870Y013977D02*
X021023Y014130D01*
X021177Y013977D01*
X021177Y013670D01*
X021330Y013670D02*
X021330Y014130D01*
X021561Y014130D01*
X021637Y014054D01*
X021637Y013900D01*
X021561Y013823D01*
X021330Y013823D01*
X021177Y013900D02*
X020870Y013900D01*
X020870Y013977D02*
X020870Y013670D01*
X021791Y013670D02*
X021791Y014130D01*
X021868Y013900D02*
X022098Y013670D01*
X021791Y013823D02*
X022098Y014130D01*
X023620Y019170D02*
X023620Y019630D01*
X023850Y019630D01*
X023927Y019554D01*
X023927Y019400D01*
X023850Y019323D01*
X023620Y019323D01*
X024080Y019170D02*
X024234Y019170D01*
X024157Y019170D02*
X024157Y019630D01*
X024080Y019630D02*
X024234Y019630D01*
X024387Y019630D02*
X024387Y019170D01*
X024387Y019323D02*
X024618Y019323D01*
X024694Y019400D01*
X024694Y019554D01*
X024618Y019630D01*
X024387Y019630D01*
X024541Y019323D02*
X024694Y019170D01*
X024848Y019170D02*
X025155Y019477D01*
X025155Y019554D01*
X025078Y019630D01*
X024924Y019630D01*
X024848Y019554D01*
X024848Y019170D02*
X025155Y019170D01*
X021080Y023670D02*
X020620Y023670D01*
X020620Y023900D01*
X020696Y023977D01*
X020850Y023977D01*
X020927Y023900D01*
X020927Y023670D01*
X020927Y023823D02*
X021080Y023977D01*
X021003Y024130D02*
X020927Y024207D01*
X020927Y024437D01*
X020850Y024437D02*
X021080Y024437D01*
X021080Y024207D01*
X021003Y024130D01*
X020773Y024207D02*
X020773Y024361D01*
X020850Y024437D01*
X020773Y024591D02*
X021003Y024591D01*
X021080Y024668D01*
X021003Y024744D01*
X021080Y024821D01*
X021003Y024898D01*
X020773Y024898D01*
X019467Y025430D02*
X019120Y025430D01*
X019293Y025257D02*
X019293Y025604D01*
X017830Y024821D02*
X017753Y024898D01*
X017523Y024898D01*
X017753Y024744D02*
X017830Y024821D01*
X017753Y024744D02*
X017830Y024668D01*
X017753Y024591D01*
X017523Y024591D01*
X017600Y024437D02*
X017523Y024361D01*
X017523Y024207D01*
X017677Y024207D02*
X017677Y024437D01*
X017600Y024437D02*
X017830Y024437D01*
X017830Y024207D01*
X017753Y024130D01*
X017677Y024207D01*
X017600Y023977D02*
X017677Y023900D01*
X017677Y023670D01*
X017830Y023670D02*
X017370Y023670D01*
X017370Y023900D01*
X017446Y023977D01*
X017600Y023977D01*
X017677Y023823D02*
X017830Y023977D01*
X016467Y023180D02*
X016120Y023180D01*
X016293Y023007D02*
X016293Y023354D01*
X011405Y026670D02*
X011098Y026670D01*
X011251Y026670D02*
X011251Y027130D01*
X011098Y026977D01*
X010944Y027054D02*
X010944Y026900D01*
X010868Y026823D01*
X010637Y026823D01*
X010637Y026670D02*
X010637Y027130D01*
X010868Y027130D01*
X010944Y027054D01*
X010791Y026823D02*
X010944Y026670D01*
X010484Y026670D02*
X010330Y026670D01*
X010407Y026670D02*
X010407Y027130D01*
X010330Y027130D02*
X010484Y027130D01*
X010177Y027054D02*
X010177Y026900D01*
X010100Y026823D01*
X009870Y026823D01*
X009870Y026670D02*
X009870Y027130D01*
X010100Y027130D01*
X010177Y027054D01*
X008268Y027054D02*
X008115Y026900D01*
X008115Y026670D01*
X008115Y026900D02*
X007962Y027054D01*
X007962Y027130D01*
X007808Y026977D02*
X007808Y026670D01*
X007808Y026900D02*
X007501Y026900D01*
X007501Y026977D02*
X007501Y026670D01*
X007348Y026670D02*
X007041Y026670D01*
X007041Y027130D01*
X006887Y027130D02*
X006580Y027130D01*
X006580Y026670D01*
X006887Y026670D01*
X006734Y026900D02*
X006580Y026900D01*
X006427Y026900D02*
X006427Y027054D01*
X006350Y027130D01*
X006120Y027130D01*
X006120Y026670D01*
X006120Y026823D02*
X006350Y026823D01*
X006427Y026900D01*
X006273Y026823D02*
X006427Y026670D01*
X007501Y026977D02*
X007655Y027130D01*
X007808Y026977D01*
X008268Y027054D02*
X008268Y027130D01*
X004580Y013830D02*
X004580Y013483D01*
X004233Y013830D01*
X004233Y013483D01*
X004320Y013314D02*
X004320Y012967D01*
X004580Y012967D02*
X004060Y012967D01*
X004060Y012798D02*
X004580Y012798D01*
X004580Y012451D02*
X004060Y012451D01*
X004233Y012625D01*
X004060Y012798D01*
X004060Y013314D02*
X004580Y013314D01*
X004493Y012283D02*
X004407Y012283D01*
X004320Y012196D01*
X004320Y011936D01*
X004493Y011936D01*
X004580Y012022D01*
X004580Y012196D01*
X004493Y012283D01*
X004320Y011936D02*
X004146Y012109D01*
X004060Y012283D01*
X004060Y011593D02*
X004580Y011593D01*
X004580Y011420D02*
X004580Y011767D01*
X004233Y011420D02*
X004060Y011593D01*
X010120Y003380D02*
X010350Y003380D01*
X010427Y003304D01*
X010427Y003150D01*
X010350Y003073D01*
X010120Y003073D01*
X010120Y002920D02*
X010120Y003380D01*
X010580Y003380D02*
X010580Y002997D01*
X010657Y002920D01*
X010811Y002920D01*
X010887Y002997D01*
X010887Y003380D01*
X011041Y003304D02*
X011118Y003380D01*
X011271Y003380D01*
X011348Y003304D01*
X011501Y003380D02*
X011501Y002920D01*
X011348Y002997D02*
X011348Y003073D01*
X011271Y003150D01*
X011118Y003150D01*
X011041Y003227D01*
X011041Y003304D01*
X011041Y002997D02*
X011118Y002920D01*
X011271Y002920D01*
X011348Y002997D01*
X011501Y003150D02*
X011808Y003150D01*
X011808Y003380D02*
X011808Y002920D01*
X008677Y002900D02*
X008370Y002900D01*
X008523Y002747D02*
X008523Y003054D01*
X007677Y002900D02*
X007370Y002900D01*
X006640Y001880D02*
X006717Y001804D01*
X006717Y001650D01*
X006640Y001573D01*
X006410Y001573D01*
X006410Y001420D02*
X006410Y001880D01*
X006640Y001880D01*
X006563Y001573D02*
X006717Y001420D01*
X006256Y001420D02*
X006256Y001880D01*
X006103Y001573D02*
X006256Y001420D01*
X006103Y001573D02*
X005949Y001420D01*
X005949Y001880D01*
X005796Y001804D02*
X005719Y001880D01*
X005489Y001880D01*
X005489Y001420D01*
X005489Y001573D02*
X005719Y001573D01*
X005796Y001650D01*
X005796Y001804D01*
X015560Y006170D02*
X015560Y006430D01*
X015646Y006517D01*
X015820Y006517D01*
X015907Y006430D01*
X015907Y006170D01*
X016080Y006170D02*
X015560Y006170D01*
X015907Y006343D02*
X016080Y006517D01*
X015993Y006686D02*
X015907Y006772D01*
X015907Y007033D01*
X015820Y007033D02*
X016080Y007033D01*
X016080Y006772D01*
X015993Y006686D01*
X015733Y006772D02*
X015733Y006946D01*
X015820Y007033D01*
X015733Y007201D02*
X015993Y007201D01*
X016080Y007288D01*
X015993Y007375D01*
X016080Y007462D01*
X015993Y007548D01*
X015733Y007548D01*
X017370Y008180D02*
X017717Y008180D01*
X017543Y008007D02*
X017543Y008354D01*
D12*
X019100Y008150D02*
X025600Y008150D01*
X023230Y007160D02*
X023230Y006980D01*
X023230Y006340D02*
X023230Y006140D01*
X019100Y005400D02*
X012600Y005400D01*
X012600Y013150D01*
X019600Y013150D01*
X019600Y015150D01*
X025600Y015150D01*
X025600Y013150D02*
X019600Y013150D01*
X021600Y018150D02*
X021600Y019900D01*
X025600Y019900D01*
X021730Y023890D02*
X021730Y024090D01*
X021730Y024730D02*
X021730Y024910D01*
X018100Y025650D02*
X025600Y025650D01*
X021600Y018150D02*
X012600Y018150D01*
X012600Y022900D01*
X012600Y030150D01*
X014470Y024910D02*
X014470Y024710D01*
X014470Y024070D02*
X014470Y023890D01*
X012600Y022900D02*
X018100Y022900D01*
X018100Y025650D01*
X019100Y008150D02*
X019100Y005400D01*
X014970Y006390D02*
X014970Y006570D01*
X014970Y007210D02*
X014970Y007410D01*
X012600Y005400D02*
X012600Y000150D01*
D13*
X013300Y000650D02*
X014450Y000700D01*
X014550Y000800D01*
X014550Y004500D01*
X014450Y004600D01*
X013300Y004650D01*
X013550Y008650D02*
X014700Y008700D01*
X014800Y008800D01*
X014800Y012500D01*
X014700Y012600D01*
X013550Y012650D01*
X014989Y015420D02*
X014989Y015920D01*
X015323Y015920D01*
X015505Y015920D02*
X015839Y015920D01*
X015672Y015920D02*
X015672Y015420D01*
X016021Y015420D02*
X016271Y015420D01*
X016354Y015503D01*
X016354Y015837D01*
X016271Y015920D01*
X016021Y015920D01*
X016021Y015420D01*
X016536Y015420D02*
X016703Y015420D01*
X016620Y015420D02*
X016620Y015920D01*
X016703Y015920D02*
X016536Y015920D01*
X015156Y015670D02*
X014989Y015670D01*
X014450Y018700D02*
X013300Y018650D01*
X014450Y018700D02*
X014550Y018800D01*
X014550Y022500D01*
X014450Y022600D01*
X013300Y022650D01*
X013550Y025650D02*
X014700Y025700D01*
X014800Y025800D01*
X014800Y029500D01*
X014700Y029600D01*
X013550Y029650D01*
X021630Y029464D02*
X021630Y029037D01*
X021737Y028930D01*
X021950Y028930D01*
X022057Y029037D01*
X022057Y029250D01*
X021844Y029250D01*
X022057Y029464D02*
X021950Y029571D01*
X021737Y029571D01*
X021630Y029464D01*
X022275Y029357D02*
X022275Y028930D01*
X022275Y029144D02*
X022488Y029357D01*
X022595Y029357D01*
X022812Y029357D02*
X022812Y028930D01*
X023239Y028930D02*
X023239Y029250D01*
X023132Y029357D01*
X022812Y029357D01*
X023630Y024821D02*
X023950Y024821D01*
X024057Y024714D01*
X024057Y024500D01*
X023950Y024394D01*
X023630Y024394D01*
X023844Y024394D02*
X024057Y024180D01*
X024275Y024287D02*
X024275Y024500D01*
X024381Y024607D01*
X024595Y024607D01*
X024702Y024500D01*
X024702Y024394D01*
X024275Y024394D01*
X024275Y024287D02*
X024381Y024180D01*
X024595Y024180D01*
X024919Y024287D02*
X024919Y024500D01*
X025026Y024607D01*
X025346Y024607D01*
X025346Y024821D02*
X025346Y024180D01*
X025026Y024180D01*
X024919Y024287D01*
X023630Y024180D02*
X023630Y024821D01*
X022631Y009571D02*
X022631Y008930D01*
X022525Y008930D02*
X022738Y008930D01*
X022954Y009037D02*
X022954Y009357D01*
X022954Y009037D02*
X023061Y008930D01*
X023381Y008930D01*
X023381Y009357D01*
X023599Y009250D02*
X023599Y009037D01*
X023706Y008930D01*
X023919Y008930D01*
X024026Y009144D02*
X023599Y009144D01*
X023599Y009250D02*
X023706Y009357D01*
X023919Y009357D01*
X024026Y009250D01*
X024026Y009144D01*
X022631Y009571D02*
X022525Y009571D01*
X022307Y009464D02*
X022307Y009357D01*
X022200Y009250D01*
X021880Y009250D01*
X021880Y008930D02*
X022200Y008930D01*
X022307Y009037D01*
X022307Y009144D01*
X022200Y009250D01*
X022307Y009464D02*
X022200Y009571D01*
X021880Y009571D01*
X021880Y008930D01*
X021807Y001321D02*
X021807Y001214D01*
X021594Y001000D01*
X021594Y000680D01*
X021594Y001000D02*
X021380Y001214D01*
X021380Y001321D01*
X022025Y001321D02*
X022131Y001321D01*
X022131Y000680D01*
X022025Y000680D02*
X022238Y000680D01*
X022454Y000787D02*
X022454Y001107D01*
X022454Y000787D02*
X022561Y000680D01*
X022668Y000787D01*
X022775Y000680D01*
X022881Y000787D01*
X022881Y001107D01*
D14*
X019398Y013665D02*
X019301Y013762D01*
X019349Y013762D02*
X019204Y013762D01*
X019204Y013665D02*
X019204Y013955D01*
X019349Y013955D01*
X019398Y013907D01*
X019398Y013810D01*
X019349Y013762D01*
X019103Y013955D02*
X018910Y013955D01*
X019006Y013955D02*
X019006Y013665D01*
X018808Y013713D02*
X018808Y013907D01*
X018760Y013955D01*
X018615Y013955D01*
X018615Y013665D01*
X018760Y013665D01*
X018808Y013713D01*
X022740Y016225D02*
X022987Y016225D01*
X022863Y016102D02*
X022863Y016349D01*
X022740Y017475D02*
X022987Y017475D01*
X014148Y013907D02*
X014099Y013955D01*
X013954Y013955D01*
X013954Y013665D01*
X014099Y013665D01*
X014148Y013713D01*
X014148Y013907D01*
X013853Y013955D02*
X013853Y013665D01*
X013660Y013955D01*
X013660Y013665D01*
X013558Y013713D02*
X013558Y013810D01*
X013462Y013810D01*
X013558Y013713D02*
X013510Y013665D01*
X013413Y013665D01*
X013365Y013713D01*
X013365Y013907D01*
X013413Y013955D01*
X013510Y013955D01*
X013558Y013907D01*
X003085Y014038D02*
X002900Y014038D01*
X002776Y014162D01*
X002715Y014162D01*
X002900Y014283D02*
X002776Y014407D01*
X002715Y014530D01*
X002900Y014468D02*
X002900Y014283D01*
X003023Y014283D01*
X003085Y014345D01*
X003085Y014468D01*
X003023Y014530D01*
X002962Y014530D01*
X002900Y014468D01*
X002900Y014038D02*
X002776Y013915D01*
X002715Y013915D01*
X002715Y015665D02*
X002776Y015665D01*
X002900Y015788D01*
X003085Y015788D01*
X002900Y015788D02*
X002776Y015912D01*
X002715Y015912D01*
X002715Y016033D02*
X002900Y016033D01*
X002838Y016157D01*
X002838Y016218D01*
X002900Y016280D01*
X003023Y016280D01*
X003085Y016218D01*
X003085Y016095D01*
X003023Y016033D01*
X002715Y016033D02*
X002715Y016280D01*
X002715Y017915D02*
X002776Y017915D01*
X002900Y018038D01*
X003085Y018038D01*
X002900Y018038D02*
X002776Y018162D01*
X002715Y018162D01*
X002900Y018283D02*
X002715Y018468D01*
X003085Y018468D01*
X002900Y018530D02*
X002900Y018283D01*
X002776Y020165D02*
X002900Y020288D01*
X003085Y020288D01*
X002900Y020288D02*
X002776Y020412D01*
X002715Y020412D01*
X002776Y020533D02*
X002715Y020595D01*
X002715Y020718D01*
X002776Y020780D01*
X002838Y020780D01*
X002900Y020718D01*
X002962Y020780D01*
X003023Y020780D01*
X003085Y020718D01*
X003085Y020595D01*
X003023Y020533D01*
X002900Y020657D02*
X002900Y020718D01*
X002776Y020165D02*
X002715Y020165D01*
X002715Y022165D02*
X002776Y022165D01*
X002900Y022288D01*
X003085Y022288D01*
X002900Y022288D02*
X002776Y022412D01*
X002715Y022412D01*
X002776Y022533D02*
X002715Y022595D01*
X002715Y022718D01*
X002776Y022780D01*
X002838Y022780D01*
X003085Y022533D01*
X003085Y022780D01*
X002776Y024915D02*
X002900Y025038D01*
X003085Y025038D01*
X002900Y025038D02*
X002776Y025162D01*
X002715Y025162D01*
X002838Y025283D02*
X002715Y025407D01*
X003085Y025407D01*
X003085Y025530D02*
X003085Y025283D01*
X002776Y024915D02*
X002715Y024915D01*
X002715Y026915D02*
X002776Y026915D01*
X002900Y027038D01*
X003085Y027038D01*
X002900Y027038D02*
X002776Y027162D01*
X002715Y027162D01*
X002776Y027283D02*
X002715Y027345D01*
X002715Y027468D01*
X002776Y027530D01*
X003023Y027283D01*
X003085Y027345D01*
X003085Y027468D01*
X003023Y027530D01*
X002776Y027530D01*
X002776Y027283D02*
X003023Y027283D01*
X005990Y027475D02*
X006237Y027475D01*
X007990Y027475D02*
X008237Y027475D01*
X008113Y027352D02*
X008113Y027599D01*
X010490Y027475D02*
X010737Y027475D01*
X011490Y027475D02*
X011737Y027475D01*
X011613Y027352D02*
X011613Y027599D01*
X002776Y011780D02*
X003023Y011533D01*
X003085Y011533D01*
X003085Y011288D02*
X002900Y011288D01*
X002776Y011412D01*
X002715Y011412D01*
X002715Y011533D02*
X002715Y011780D01*
X002776Y011780D01*
X002900Y011288D02*
X002776Y011165D01*
X002715Y011165D01*
X002720Y009785D02*
X002720Y009415D01*
X002599Y009415D02*
X002352Y009415D01*
X002352Y009785D01*
X002230Y009724D02*
X002168Y009785D01*
X002045Y009785D01*
X001983Y009724D01*
X001983Y009477D01*
X002045Y009415D01*
X002168Y009415D01*
X002230Y009477D01*
X001862Y009477D02*
X001800Y009415D01*
X001677Y009415D01*
X001615Y009477D01*
X001677Y009600D02*
X001800Y009600D01*
X001862Y009538D01*
X001862Y009477D01*
X001677Y009600D02*
X001615Y009662D01*
X001615Y009724D01*
X001677Y009785D01*
X001800Y009785D01*
X001862Y009724D01*
X002720Y009538D02*
X002967Y009785D01*
X002782Y009600D02*
X002967Y009415D01*
X002782Y008785D02*
X002844Y008724D01*
X002844Y008477D01*
X002782Y008415D01*
X002659Y008415D01*
X002597Y008477D01*
X002597Y008724D01*
X002659Y008785D01*
X002782Y008785D01*
X002476Y008724D02*
X002414Y008785D01*
X002291Y008785D01*
X002229Y008724D01*
X002229Y008662D01*
X002291Y008600D01*
X002414Y008600D01*
X002476Y008538D01*
X002476Y008477D01*
X002414Y008415D01*
X002291Y008415D01*
X002229Y008477D01*
X002107Y008415D02*
X001983Y008415D01*
X002045Y008415D02*
X002045Y008785D01*
X001983Y008785D02*
X002107Y008785D01*
X001862Y008785D02*
X001862Y008415D01*
X001615Y008415D02*
X001615Y008785D01*
X001738Y008662D01*
X001862Y008785D01*
X001862Y007785D02*
X001738Y007662D01*
X001615Y007785D01*
X001615Y007415D01*
X001862Y007415D02*
X001862Y007785D01*
X001983Y007724D02*
X001983Y007477D01*
X002045Y007415D01*
X002168Y007415D01*
X002230Y007477D01*
X002230Y007724D01*
X002168Y007785D01*
X002045Y007785D01*
X001983Y007724D01*
X002352Y007724D02*
X002352Y007662D01*
X002413Y007600D01*
X002537Y007600D01*
X002599Y007538D01*
X002599Y007477D01*
X002537Y007415D01*
X002413Y007415D01*
X002352Y007477D01*
X002352Y007724D02*
X002413Y007785D01*
X002537Y007785D01*
X002599Y007724D01*
X002720Y007785D02*
X002843Y007785D01*
X002782Y007785D02*
X002782Y007415D01*
X002843Y007415D02*
X002720Y007415D01*
X002168Y006785D02*
X002045Y006785D01*
X001983Y006724D01*
X001983Y006662D01*
X002045Y006600D01*
X002168Y006600D01*
X002230Y006538D01*
X002230Y006477D01*
X002168Y006415D01*
X002045Y006415D01*
X001983Y006477D01*
X001862Y006477D02*
X001800Y006415D01*
X001677Y006415D01*
X001615Y006477D01*
X001615Y006724D01*
X001677Y006785D01*
X001800Y006785D01*
X001862Y006724D01*
X002168Y006785D02*
X002230Y006724D01*
X002107Y005785D02*
X002107Y005415D01*
X002230Y005415D02*
X001983Y005415D01*
X001862Y005477D02*
X001800Y005415D01*
X001615Y005415D01*
X001615Y005785D01*
X001800Y005785D01*
X001862Y005724D01*
X001862Y005662D01*
X001800Y005600D01*
X001615Y005600D01*
X001800Y005600D02*
X001862Y005538D01*
X001862Y005477D01*
X001983Y005662D02*
X002107Y005785D01*
X002045Y004785D02*
X002168Y004785D01*
X002230Y004724D01*
X001983Y004477D01*
X002045Y004415D01*
X002168Y004415D01*
X002230Y004477D01*
X002230Y004724D01*
X002045Y004785D02*
X001983Y004724D01*
X001983Y004477D01*
X001862Y004477D02*
X001800Y004415D01*
X001615Y004415D01*
X001615Y004785D01*
X001800Y004785D01*
X001862Y004724D01*
X001862Y004662D01*
X001800Y004600D01*
X001615Y004600D01*
X001800Y004600D02*
X001862Y004538D01*
X001862Y004477D01*
X001800Y003785D02*
X001615Y003785D01*
X001615Y003415D01*
X001800Y003415D01*
X001862Y003477D01*
X001862Y003724D01*
X001800Y003785D01*
X001983Y003785D02*
X002230Y003785D01*
X002230Y003724D01*
X001983Y003477D01*
X001983Y003415D01*
X001983Y002785D02*
X002230Y002415D01*
X002230Y002785D01*
X002352Y002785D02*
X002537Y002785D01*
X002599Y002724D01*
X002599Y002477D01*
X002537Y002415D01*
X002352Y002415D01*
X002352Y002785D01*
X001983Y002785D02*
X001983Y002415D01*
X001862Y002477D02*
X001862Y002600D01*
X001738Y002600D01*
X001615Y002477D02*
X001677Y002415D01*
X001800Y002415D01*
X001862Y002477D01*
X001862Y002724D02*
X001800Y002785D01*
X001677Y002785D01*
X001615Y002724D01*
X001615Y002477D01*
D15*
X022360Y018447D02*
X022397Y018410D01*
X022470Y018410D01*
X022507Y018447D01*
X022507Y018483D01*
X022470Y018520D01*
X022397Y018520D01*
X022360Y018557D01*
X022360Y018593D01*
X022397Y018630D01*
X022470Y018630D01*
X022507Y018593D01*
X022581Y018630D02*
X022654Y018630D01*
X022618Y018630D02*
X022618Y018410D01*
X022654Y018410D02*
X022581Y018410D01*
X022728Y018447D02*
X022765Y018410D01*
X022838Y018410D01*
X022875Y018447D01*
X022875Y018520D01*
X022802Y018520D01*
X022875Y018593D02*
X022838Y018630D01*
X022765Y018630D01*
X022728Y018593D01*
X022728Y018447D01*
X009875Y027447D02*
X009875Y027520D01*
X009802Y027520D01*
X009875Y027447D02*
X009838Y027410D01*
X009765Y027410D01*
X009728Y027447D01*
X009728Y027593D01*
X009765Y027630D01*
X009838Y027630D01*
X009875Y027593D01*
X009654Y027630D02*
X009581Y027630D01*
X009618Y027630D02*
X009618Y027410D01*
X009654Y027410D02*
X009581Y027410D01*
X009507Y027447D02*
X009470Y027410D01*
X009397Y027410D01*
X009360Y027447D01*
X009397Y027520D02*
X009470Y027520D01*
X009507Y027483D01*
X009507Y027447D01*
X009397Y027520D02*
X009360Y027557D01*
X009360Y027593D01*
X009397Y027630D01*
X009470Y027630D01*
X009507Y027593D01*
X007375Y027593D02*
X007338Y027630D01*
X007265Y027630D01*
X007228Y027593D01*
X007228Y027447D01*
X007265Y027410D01*
X007338Y027410D01*
X007375Y027447D01*
X007375Y027520D01*
X007302Y027520D01*
X007154Y027410D02*
X007081Y027410D01*
X007118Y027410D02*
X007118Y027630D01*
X007154Y027630D02*
X007081Y027630D01*
X007007Y027593D02*
X006970Y027630D01*
X006897Y027630D01*
X006860Y027593D01*
X006860Y027557D01*
X006897Y027520D01*
X006970Y027520D01*
X007007Y027483D01*
X007007Y027447D01*
X006970Y027410D01*
X006897Y027410D01*
X006860Y027447D01*
D16*
X005600Y027700D02*
X008600Y027700D01*
X008600Y029900D01*
X008100Y029900D01*
X008100Y029400D01*
X006100Y029400D01*
X006100Y029900D01*
X008100Y029900D01*
X009100Y029900D02*
X009600Y029900D01*
X009600Y029400D01*
X011600Y029400D01*
X011600Y029900D01*
X012100Y029900D01*
X012100Y027700D01*
X009100Y027700D01*
X009100Y029900D01*
X009600Y029900D02*
X011600Y029900D01*
X015150Y025400D02*
X015150Y023400D01*
X017350Y023400D01*
X017350Y023900D01*
X016850Y023900D01*
X016850Y024900D01*
X017350Y024900D01*
X017350Y023900D01*
X018350Y023650D02*
X018350Y024650D01*
X018850Y024650D01*
X018850Y023650D01*
X018350Y023650D01*
X018350Y023150D01*
X020550Y023150D01*
X020550Y025150D01*
X018350Y025150D01*
X018350Y024650D01*
X017350Y024900D02*
X017350Y025400D01*
X015150Y025400D01*
X015600Y025900D02*
X016100Y025900D01*
X016100Y026400D01*
X017100Y026400D01*
X017100Y025900D01*
X016100Y025900D01*
X015600Y025900D02*
X015600Y028100D01*
X017600Y028100D01*
X017600Y025900D01*
X017100Y025900D01*
X018100Y025900D02*
X018600Y025900D01*
X018600Y026400D01*
X019600Y026400D01*
X019600Y025900D01*
X018600Y025900D01*
X018100Y025900D02*
X018100Y028100D01*
X020100Y028100D01*
X020100Y025900D01*
X019600Y025900D01*
X020600Y025900D02*
X021100Y025900D01*
X021100Y026400D01*
X022100Y026400D01*
X022100Y025900D01*
X021100Y025900D01*
X020600Y025900D02*
X020600Y028100D01*
X022600Y028100D01*
X022600Y025900D01*
X022100Y025900D01*
X023100Y025900D02*
X023600Y025900D01*
X023600Y026400D01*
X024600Y026400D01*
X024600Y025900D01*
X023600Y025900D01*
X023100Y025900D02*
X023100Y028100D01*
X025100Y028100D01*
X025100Y025900D01*
X024600Y025900D01*
X024600Y022650D02*
X023600Y022650D01*
X023600Y022150D01*
X024600Y022150D01*
X024600Y022650D01*
X025100Y022650D01*
X025100Y020450D01*
X023100Y020450D01*
X023100Y022650D01*
X023600Y022650D01*
X022600Y022650D02*
X022100Y022650D01*
X022100Y022150D01*
X021100Y022150D01*
X021100Y022650D01*
X022100Y022650D01*
X022600Y022650D02*
X022600Y020450D01*
X020600Y020450D01*
X020600Y022650D01*
X021100Y022650D01*
X020100Y022650D02*
X019600Y022650D01*
X019600Y022150D01*
X018600Y022150D01*
X018600Y022650D01*
X019600Y022650D01*
X020100Y022650D02*
X020100Y020450D01*
X018100Y020450D01*
X018100Y022650D01*
X018600Y022650D01*
X017600Y022650D02*
X017100Y022650D01*
X017100Y022150D01*
X016100Y022150D01*
X016100Y022650D01*
X017100Y022650D01*
X017600Y022650D02*
X017600Y020450D01*
X015600Y020450D01*
X015600Y022650D01*
X016100Y022650D01*
X016030Y017025D02*
X016030Y016755D01*
X015940Y016755D02*
X016120Y016755D01*
X016235Y016800D02*
X016415Y016980D01*
X016415Y016800D01*
X016370Y016755D01*
X016280Y016755D01*
X016235Y016800D01*
X016235Y016980D01*
X016280Y017025D01*
X016370Y017025D01*
X016415Y016980D01*
X016529Y017025D02*
X016529Y016755D01*
X016529Y016845D02*
X016665Y016935D01*
X016529Y016845D02*
X016665Y016755D01*
X016030Y017025D02*
X015940Y016935D01*
X015850Y012650D02*
X015350Y012650D01*
X015350Y010450D01*
X017350Y010450D01*
X017350Y012650D01*
X016850Y012650D01*
X016850Y012150D01*
X015850Y012150D01*
X015850Y012650D01*
X016850Y012650D01*
X017850Y012650D02*
X018350Y012650D01*
X018350Y012150D01*
X019350Y012150D01*
X019350Y012650D01*
X019850Y012650D01*
X019850Y010450D01*
X017850Y010450D01*
X017850Y012650D01*
X018350Y012650D02*
X019350Y012650D01*
X020100Y012650D02*
X020600Y012650D01*
X020600Y012150D01*
X021600Y012150D01*
X021600Y012650D01*
X022100Y012650D01*
X022100Y010450D01*
X020100Y010450D01*
X020100Y012650D01*
X020600Y012650D02*
X021600Y012650D01*
X022600Y012650D02*
X023100Y012650D01*
X023100Y012150D01*
X024100Y012150D01*
X024100Y012650D01*
X024600Y012650D01*
X024600Y010450D01*
X022600Y010450D01*
X022600Y012650D01*
X023100Y012650D02*
X024100Y012650D01*
X023150Y015900D02*
X023150Y018900D01*
X025350Y018900D01*
X025350Y018400D01*
X024850Y018400D01*
X024850Y016400D01*
X025350Y016400D01*
X025350Y015900D01*
X023150Y015900D01*
X025350Y016400D02*
X025350Y018400D01*
X018600Y007900D02*
X018600Y007400D01*
X018100Y007400D01*
X018100Y006400D01*
X018600Y006400D01*
X018600Y005900D01*
X016400Y005900D01*
X016400Y007900D01*
X018600Y007900D01*
X018600Y007400D02*
X018600Y006400D01*
X019850Y006150D02*
X019850Y005650D01*
X022050Y005650D01*
X022050Y007650D01*
X019850Y007650D01*
X019850Y007150D01*
X020350Y007150D01*
X020350Y006150D01*
X019850Y006150D01*
X019850Y007150D01*
X019850Y004650D02*
X019350Y004650D01*
X019350Y004150D01*
X018350Y004150D01*
X018350Y004650D01*
X019350Y004650D01*
X019850Y004650D02*
X019850Y002450D01*
X017850Y002450D01*
X017850Y004650D01*
X018350Y004650D01*
X017350Y004650D02*
X016850Y004650D01*
X016850Y004150D01*
X015850Y004150D01*
X015850Y004650D01*
X016850Y004650D01*
X017350Y004650D02*
X017350Y002450D01*
X015350Y002450D01*
X015350Y004650D01*
X015850Y004650D01*
X011850Y002600D02*
X011850Y000400D01*
X011350Y000400D01*
X011350Y000900D01*
X010350Y000900D01*
X010350Y000400D01*
X009850Y000400D01*
X009850Y002600D01*
X011850Y002600D01*
X011350Y000400D02*
X010350Y000400D01*
X009100Y000400D02*
X008600Y000400D01*
X008600Y000900D01*
X007600Y000900D01*
X007600Y000400D01*
X007100Y000400D01*
X007100Y002600D01*
X009100Y002600D01*
X009100Y000400D01*
X008600Y000400D02*
X007600Y000400D01*
X008725Y005275D02*
X008905Y005275D01*
X008815Y005275D02*
X008815Y005545D01*
X008725Y005455D01*
X009020Y005500D02*
X009020Y005320D01*
X009200Y005500D01*
X009200Y005320D01*
X009155Y005275D01*
X009065Y005275D01*
X009020Y005320D01*
X009020Y005500D02*
X009065Y005545D01*
X009155Y005545D01*
X009200Y005500D01*
X009314Y005545D02*
X009314Y005275D01*
X009314Y005365D02*
X009449Y005455D01*
X009314Y005365D02*
X009449Y005275D01*
X002550Y010400D02*
X002550Y012400D01*
X000350Y012400D01*
X000350Y011900D01*
X000850Y011900D01*
X000850Y010900D01*
X000350Y010900D01*
X000350Y011900D01*
X000350Y012650D02*
X000350Y013150D01*
X000850Y013150D01*
X000850Y014150D01*
X000350Y014150D01*
X000350Y014650D01*
X002550Y014650D01*
X002550Y012650D01*
X000350Y012650D01*
X000350Y013150D02*
X000350Y014150D01*
X000350Y014900D02*
X000350Y015400D01*
X000850Y015400D01*
X000850Y016400D01*
X000350Y016400D01*
X000350Y016900D01*
X002550Y016900D01*
X002550Y014900D01*
X000350Y014900D01*
X000350Y015400D02*
X000350Y016400D01*
X000350Y017150D02*
X000350Y017650D01*
X000850Y017650D01*
X000850Y018650D01*
X000350Y018650D01*
X000350Y019150D01*
X002550Y019150D01*
X002550Y017150D01*
X000350Y017150D01*
X000350Y017650D02*
X000350Y018650D01*
X000350Y019400D02*
X000350Y019900D01*
X000850Y019900D01*
X000850Y020900D01*
X000350Y020900D01*
X000350Y021400D01*
X002550Y021400D01*
X002550Y019400D01*
X000350Y019400D01*
X000350Y019900D02*
X000350Y020900D01*
X000350Y021650D02*
X000350Y022150D01*
X000850Y022150D01*
X000850Y023150D01*
X000350Y023150D01*
X000350Y023650D01*
X002550Y023650D01*
X002550Y021650D01*
X000350Y021650D01*
X000350Y022150D02*
X000350Y023150D01*
X000350Y023900D02*
X000350Y024400D01*
X000850Y024400D01*
X000850Y025400D01*
X000350Y025400D01*
X000350Y025900D01*
X002550Y025900D01*
X002550Y023900D01*
X000350Y023900D01*
X000350Y024400D02*
X000350Y025400D01*
X000350Y026150D02*
X000350Y026650D01*
X000850Y026650D01*
X000850Y027650D01*
X000350Y027650D01*
X000350Y028150D01*
X002550Y028150D01*
X002550Y026150D01*
X000350Y026150D01*
X000350Y026650D02*
X000350Y027650D01*
X005600Y027700D02*
X005600Y029900D01*
X006100Y029900D01*
X006192Y024625D02*
X006192Y024175D01*
X006352Y024175D02*
X006352Y024250D01*
X006653Y024550D01*
X006653Y024625D01*
X006352Y024625D01*
X006192Y024625D02*
X006042Y024475D01*
X005892Y024625D01*
X005892Y024175D01*
X006813Y024400D02*
X007113Y024400D01*
X007273Y024400D02*
X007573Y024400D01*
X007733Y024250D02*
X007808Y024175D01*
X007959Y024175D01*
X008034Y024250D01*
X008194Y024175D02*
X008494Y024475D01*
X008494Y024550D01*
X008419Y024625D01*
X008269Y024625D01*
X008194Y024550D01*
X008034Y024550D02*
X007959Y024625D01*
X007808Y024625D01*
X007733Y024550D01*
X007733Y024250D01*
X007573Y024175D02*
X007573Y024625D01*
X007273Y024625D02*
X007273Y024175D01*
X007038Y024175D02*
X007038Y024625D01*
X006813Y024400D01*
X008194Y024175D02*
X008494Y024175D01*
X008654Y024250D02*
X008729Y024175D01*
X008879Y024175D01*
X008954Y024250D01*
X008954Y024325D01*
X008879Y024400D01*
X008804Y024400D01*
X008879Y024400D02*
X008954Y024475D01*
X008954Y024550D01*
X008879Y024625D01*
X008729Y024625D01*
X008654Y024550D01*
X009115Y024550D02*
X009115Y024475D01*
X009190Y024400D01*
X009340Y024400D01*
X009415Y024325D01*
X009415Y024250D01*
X009340Y024175D01*
X009190Y024175D01*
X009115Y024250D01*
X009115Y024325D01*
X009190Y024400D01*
X009340Y024400D02*
X009415Y024475D01*
X009415Y024550D01*
X009340Y024625D01*
X009190Y024625D01*
X009115Y024550D01*
X006645Y020811D02*
X006645Y020630D01*
X006645Y020720D02*
X006375Y020720D01*
X006465Y020630D01*
X006420Y020516D02*
X006510Y020516D01*
X006555Y020471D01*
X006555Y020336D01*
X006555Y020426D02*
X006645Y020516D01*
X006645Y020336D02*
X006375Y020336D01*
X006375Y020471D01*
X006420Y020516D01*
X005745Y020370D02*
X005475Y020370D01*
X005475Y020280D02*
X005475Y020461D01*
X005475Y020166D02*
X005475Y019986D01*
X005745Y019986D01*
X005745Y019879D02*
X005745Y019789D01*
X005745Y019834D02*
X005475Y019834D01*
X005475Y019789D02*
X005475Y019879D01*
X005610Y019986D02*
X005610Y020076D01*
X005610Y019675D02*
X005610Y019495D01*
X005655Y019380D02*
X005700Y019380D01*
X005745Y019335D01*
X005745Y019245D01*
X005700Y019200D01*
X005610Y019245D02*
X005610Y019335D01*
X005655Y019380D01*
X005520Y019380D02*
X005475Y019335D01*
X005475Y019245D01*
X005520Y019200D01*
X005565Y019200D01*
X005610Y019245D01*
X005790Y019085D02*
X005790Y018905D01*
X005745Y018791D02*
X005655Y018701D01*
X005655Y018746D02*
X005655Y018611D01*
X005745Y018611D02*
X005475Y018611D01*
X005475Y018746D01*
X005520Y018791D01*
X005610Y018791D01*
X005655Y018746D01*
X005745Y019495D02*
X005475Y019495D01*
X005475Y019675D02*
X005745Y019675D01*
X000350Y010900D02*
X000350Y010400D01*
X002550Y010400D01*
X020350Y004650D02*
X020350Y002450D01*
X022350Y002450D01*
X022350Y004650D01*
X021850Y004650D01*
X021850Y004150D01*
X020850Y004150D01*
X020850Y004650D01*
X021850Y004650D01*
X020850Y004650D02*
X020350Y004650D01*
X022850Y004650D02*
X022850Y002450D01*
X024850Y002450D01*
X024850Y004650D01*
X024350Y004650D01*
X024350Y004150D01*
X023350Y004150D01*
X023350Y004650D01*
X024350Y004650D01*
X023350Y004650D02*
X022850Y004650D01*
D17*
X020350Y001650D02*
X019850Y001650D01*
X019850Y000650D01*
X020350Y000650D01*
X020394Y000652D01*
X020437Y000658D01*
X020479Y000667D01*
X020521Y000680D01*
X020561Y000697D01*
X020600Y000717D01*
X020637Y000740D01*
X020671Y000767D01*
X020704Y000796D01*
X020733Y000829D01*
X020760Y000863D01*
X020783Y000900D01*
X020803Y000939D01*
X020820Y000979D01*
X020833Y001021D01*
X020842Y001063D01*
X020848Y001106D01*
X020850Y001150D01*
X020848Y001194D01*
X020842Y001237D01*
X020833Y001279D01*
X020820Y001321D01*
X020803Y001361D01*
X020783Y001400D01*
X020760Y001437D01*
X020733Y001471D01*
X020704Y001504D01*
X020671Y001533D01*
X020637Y001560D01*
X020600Y001583D01*
X020561Y001603D01*
X020521Y001620D01*
X020479Y001633D01*
X020437Y001642D01*
X020394Y001648D01*
X020350Y001650D01*
X019850Y001650D02*
X015350Y001650D01*
X015306Y001648D01*
X015263Y001642D01*
X015221Y001633D01*
X015179Y001620D01*
X015139Y001603D01*
X015100Y001583D01*
X015063Y001560D01*
X015029Y001533D01*
X014996Y001504D01*
X014967Y001471D01*
X014940Y001437D01*
X014917Y001400D01*
X014897Y001361D01*
X014880Y001321D01*
X014867Y001279D01*
X014858Y001237D01*
X014852Y001194D01*
X014850Y001150D01*
X014852Y001106D01*
X014858Y001063D01*
X014867Y001021D01*
X014880Y000979D01*
X014897Y000939D01*
X014917Y000900D01*
X014940Y000863D01*
X014967Y000829D01*
X014996Y000796D01*
X015029Y000767D01*
X015063Y000740D01*
X015100Y000717D01*
X015139Y000697D01*
X015179Y000680D01*
X015221Y000667D01*
X015263Y000658D01*
X015306Y000652D01*
X015350Y000650D01*
X019850Y000650D01*
X020350Y008900D02*
X015850Y008900D01*
X015806Y008902D01*
X015763Y008908D01*
X015721Y008917D01*
X015679Y008930D01*
X015639Y008947D01*
X015600Y008967D01*
X015563Y008990D01*
X015529Y009017D01*
X015496Y009046D01*
X015467Y009079D01*
X015440Y009113D01*
X015417Y009150D01*
X015397Y009189D01*
X015380Y009229D01*
X015367Y009271D01*
X015358Y009313D01*
X015352Y009356D01*
X015350Y009400D01*
X015352Y009444D01*
X015358Y009487D01*
X015367Y009529D01*
X015380Y009571D01*
X015397Y009611D01*
X015417Y009650D01*
X015440Y009687D01*
X015467Y009721D01*
X015496Y009754D01*
X015529Y009783D01*
X015563Y009810D01*
X015600Y009833D01*
X015639Y009853D01*
X015679Y009870D01*
X015721Y009883D01*
X015763Y009892D01*
X015806Y009898D01*
X015850Y009900D01*
X020350Y009900D01*
X020350Y008900D01*
X020850Y008900D01*
X020894Y008902D01*
X020937Y008908D01*
X020979Y008917D01*
X021021Y008930D01*
X021061Y008947D01*
X021100Y008967D01*
X021137Y008990D01*
X021171Y009017D01*
X021204Y009046D01*
X021233Y009079D01*
X021260Y009113D01*
X021283Y009150D01*
X021303Y009189D01*
X021320Y009229D01*
X021333Y009271D01*
X021342Y009313D01*
X021348Y009356D01*
X021350Y009400D01*
X021348Y009444D01*
X021342Y009487D01*
X021333Y009529D01*
X021320Y009571D01*
X021303Y009611D01*
X021283Y009650D01*
X021260Y009687D01*
X021233Y009721D01*
X021204Y009754D01*
X021171Y009783D01*
X021137Y009810D01*
X021100Y009833D01*
X021061Y009853D01*
X021021Y009870D01*
X020979Y009883D01*
X020937Y009892D01*
X020894Y009898D01*
X020850Y009900D01*
X020350Y009900D01*
X019100Y014200D02*
X018600Y014200D01*
X018350Y014450D01*
X018350Y014950D01*
X018600Y015200D01*
X019100Y015200D01*
X019350Y014950D01*
X019350Y014450D01*
X019100Y014200D01*
X018350Y014450D02*
X018100Y014200D01*
X017600Y014200D01*
X017350Y014450D01*
X017350Y014950D01*
X017600Y015200D01*
X018100Y015200D01*
X018350Y014950D01*
X017350Y014950D02*
X017100Y015200D01*
X016600Y015200D01*
X016350Y014950D01*
X016350Y014450D01*
X016100Y014200D01*
X015600Y014200D01*
X015350Y014450D01*
X015350Y014950D01*
X015600Y015200D01*
X016100Y015200D01*
X016350Y014950D01*
X016350Y014450D02*
X016600Y014200D01*
X017100Y014200D01*
X017350Y014450D01*
X017090Y016428D02*
X014610Y016428D01*
X014610Y017372D01*
X017090Y017372D01*
X017090Y016428D01*
X015350Y014950D02*
X015100Y015200D01*
X014600Y015200D01*
X014350Y014950D01*
X014350Y014450D01*
X014100Y014200D01*
X013600Y014200D01*
X013350Y014450D01*
X013350Y014950D01*
X013600Y015200D01*
X014100Y015200D01*
X014350Y014950D01*
X014350Y014450D02*
X014600Y014200D01*
X015100Y014200D01*
X015350Y014450D01*
X004900Y013550D02*
X004882Y013371D01*
X004868Y013191D01*
X004858Y013011D01*
X004852Y012830D01*
X004850Y012650D01*
X004852Y012470D01*
X004858Y012289D01*
X004868Y012109D01*
X004882Y011929D01*
X004900Y011750D01*
X004910Y011698D01*
X004924Y011647D01*
X004942Y011597D01*
X004963Y011549D01*
X004988Y011502D01*
X005016Y011458D01*
X005048Y011415D01*
X005082Y011375D01*
X005120Y011338D01*
X005160Y011304D01*
X005202Y011272D01*
X005247Y011244D01*
X005294Y011220D01*
X005342Y011199D01*
X005392Y011181D01*
X005443Y011168D01*
X005495Y011158D01*
X005547Y011152D01*
X005600Y011150D01*
X005653Y011152D01*
X005705Y011158D01*
X005757Y011168D01*
X005808Y011181D01*
X005858Y011199D01*
X005906Y011220D01*
X005953Y011244D01*
X005998Y011272D01*
X006040Y011304D01*
X006080Y011338D01*
X006118Y011375D01*
X006152Y011415D01*
X006184Y011458D01*
X006212Y011502D01*
X006237Y011549D01*
X006258Y011597D01*
X006276Y011647D01*
X006290Y011698D01*
X006300Y011750D01*
X006300Y013550D02*
X006290Y013602D01*
X006276Y013653D01*
X006258Y013703D01*
X006237Y013751D01*
X006212Y013798D01*
X006184Y013842D01*
X006152Y013885D01*
X006118Y013925D01*
X006080Y013962D01*
X006040Y013996D01*
X005998Y014028D01*
X005953Y014056D01*
X005906Y014080D01*
X005858Y014101D01*
X005808Y014119D01*
X005757Y014132D01*
X005705Y014142D01*
X005653Y014148D01*
X005600Y014150D01*
X005547Y014148D01*
X005495Y014142D01*
X005443Y014132D01*
X005392Y014119D01*
X005342Y014101D01*
X005294Y014080D01*
X005247Y014056D01*
X005202Y014028D01*
X005160Y013996D01*
X005120Y013962D01*
X005082Y013925D01*
X005048Y013885D01*
X005016Y013842D01*
X004988Y013798D01*
X004963Y013751D01*
X004942Y013703D01*
X004924Y013653D01*
X004910Y013602D01*
X004900Y013550D01*
X005100Y014900D02*
X005100Y016900D01*
X006100Y016900D01*
X006100Y014900D01*
X005100Y014900D01*
X005350Y015900D02*
X005850Y015900D01*
X006072Y018410D02*
X005128Y018410D01*
X005128Y020890D01*
X006072Y020890D01*
X006072Y018410D01*
X007900Y021050D02*
X007900Y021150D01*
X008600Y021150D01*
X008602Y021106D01*
X008608Y021063D01*
X008617Y021021D01*
X008630Y020979D01*
X008647Y020939D01*
X008667Y020900D01*
X008690Y020863D01*
X008717Y020829D01*
X008746Y020796D01*
X008779Y020767D01*
X008813Y020740D01*
X008850Y020717D01*
X008889Y020697D01*
X008929Y020680D01*
X008971Y020667D01*
X009013Y020658D01*
X009056Y020652D01*
X009100Y020650D01*
X009144Y020652D01*
X009187Y020658D01*
X009229Y020667D01*
X009271Y020680D01*
X009311Y020697D01*
X009350Y020717D01*
X009387Y020740D01*
X009421Y020767D01*
X009454Y020796D01*
X009483Y020829D01*
X009510Y020863D01*
X009533Y020900D01*
X009553Y020939D01*
X009570Y020979D01*
X009583Y021021D01*
X009592Y021063D01*
X009598Y021106D01*
X009600Y021150D01*
X010300Y021150D01*
X010300Y021050D01*
X009230Y017194D02*
X009003Y017194D01*
X008889Y017080D01*
X008889Y016740D01*
X009570Y016740D01*
X009343Y016740D02*
X009343Y017080D01*
X009230Y017194D01*
X009343Y016494D02*
X009230Y016381D01*
X009230Y016154D01*
X009116Y016040D01*
X009003Y016040D01*
X008889Y016154D01*
X008889Y016381D01*
X009003Y016494D01*
X009116Y016494D01*
X009230Y016381D01*
X009343Y016494D02*
X009457Y016494D01*
X009570Y016381D01*
X009570Y016154D01*
X009457Y016040D01*
X009343Y016040D01*
X009230Y016154D01*
X009116Y015794D02*
X009003Y015794D01*
X008889Y015681D01*
X008889Y015454D01*
X009003Y015341D01*
X009003Y015095D02*
X009116Y015095D01*
X009230Y014981D01*
X009343Y015095D01*
X009457Y015095D01*
X009570Y014981D01*
X009570Y014754D01*
X009457Y014641D01*
X009570Y014395D02*
X009116Y014395D01*
X008889Y014168D01*
X009116Y013941D01*
X009570Y013941D01*
X009457Y013695D02*
X009230Y013695D01*
X009230Y013468D01*
X009003Y013241D02*
X009457Y013241D01*
X009570Y013355D01*
X009570Y013581D01*
X009457Y013695D01*
X009230Y013941D02*
X009230Y014395D01*
X009003Y014641D02*
X008889Y014754D01*
X008889Y014981D01*
X009003Y015095D01*
X009230Y014981D02*
X009230Y014868D01*
X009570Y015341D02*
X009116Y015794D01*
X009570Y015794D02*
X009570Y015341D01*
X009003Y013695D02*
X008889Y013581D01*
X008889Y013355D01*
X009003Y013241D01*
X008889Y012995D02*
X008889Y012541D01*
X009570Y012541D01*
X009570Y012995D01*
X009230Y012768D02*
X009230Y012541D01*
X009570Y012295D02*
X008889Y012295D01*
X009116Y012068D01*
X008889Y011842D01*
X009570Y011842D01*
X009570Y011369D02*
X008889Y011369D01*
X008889Y011142D02*
X008889Y011596D01*
X009116Y010896D02*
X008889Y010669D01*
X009116Y010442D01*
X009570Y010442D01*
X009230Y010442D02*
X009230Y010896D01*
X009116Y010896D02*
X009570Y010896D01*
X010300Y007250D02*
X010300Y007150D01*
X007900Y007150D01*
X007900Y007250D01*
X008360Y005872D02*
X010840Y005872D01*
X010840Y004928D01*
X008360Y004928D01*
X008360Y005872D01*
X006850Y005900D02*
X005850Y005900D01*
X005850Y003900D01*
X006850Y003900D01*
X006850Y005900D01*
X006600Y004900D02*
X006100Y004900D01*
X007100Y004150D02*
X009100Y004150D01*
X009100Y003150D01*
X007100Y003150D01*
X007100Y004150D01*
X008100Y003900D02*
X008100Y003400D01*
X005350Y002400D02*
X003850Y002400D01*
X003850Y006400D01*
X005350Y006400D01*
X005350Y002400D01*
X003850Y002400D02*
X003600Y002400D01*
X003600Y006400D01*
X003850Y006400D01*
X001350Y006400D02*
X001100Y006150D01*
X001350Y005900D01*
X001350Y005400D01*
X001100Y005150D01*
X001350Y004900D01*
X001350Y004400D01*
X001100Y004150D01*
X001350Y003900D01*
X001350Y003400D01*
X001100Y003150D01*
X001350Y002900D01*
X001350Y002400D01*
X001100Y002150D01*
X000600Y002150D01*
X000350Y002400D01*
X000350Y002900D01*
X000600Y003150D01*
X000350Y003400D01*
X000350Y003900D01*
X000600Y004150D01*
X000350Y004400D01*
X000350Y004900D01*
X000600Y005150D01*
X000350Y005400D01*
X000350Y005900D01*
X000600Y006150D01*
X000350Y006400D01*
X000350Y006900D01*
X000600Y007150D01*
X000350Y007400D01*
X000350Y007900D01*
X000600Y008150D01*
X000350Y008400D01*
X000350Y008900D01*
X000600Y009150D01*
X000350Y009400D01*
X000350Y009900D01*
X000600Y010150D01*
X001100Y010150D01*
X001350Y009900D01*
X001350Y009400D01*
X001100Y009150D01*
X001350Y008900D01*
X001350Y008400D01*
X001100Y008150D01*
X001350Y007900D01*
X001350Y007400D01*
X001100Y007150D01*
X001350Y006900D01*
X001350Y006400D01*
X006300Y011750D02*
X006318Y011929D01*
X006332Y012109D01*
X006342Y012289D01*
X006348Y012470D01*
X006350Y012650D01*
X006348Y012830D01*
X006342Y013011D01*
X006332Y013191D01*
X006318Y013371D01*
X006300Y013550D01*
X015600Y018650D02*
X020100Y018650D01*
X020100Y019650D01*
X015600Y019650D01*
X015556Y019648D01*
X015513Y019642D01*
X015471Y019633D01*
X015429Y019620D01*
X015389Y019603D01*
X015350Y019583D01*
X015313Y019560D01*
X015279Y019533D01*
X015246Y019504D01*
X015217Y019471D01*
X015190Y019437D01*
X015167Y019400D01*
X015147Y019361D01*
X015130Y019321D01*
X015117Y019279D01*
X015108Y019237D01*
X015102Y019194D01*
X015100Y019150D01*
X015102Y019106D01*
X015108Y019063D01*
X015117Y019021D01*
X015130Y018979D01*
X015147Y018939D01*
X015167Y018900D01*
X015190Y018863D01*
X015217Y018829D01*
X015246Y018796D01*
X015279Y018767D01*
X015313Y018740D01*
X015350Y018717D01*
X015389Y018697D01*
X015429Y018680D01*
X015471Y018667D01*
X015513Y018658D01*
X015556Y018652D01*
X015600Y018650D01*
X019850Y017400D02*
X019850Y015400D01*
X020850Y015400D01*
X020850Y017400D01*
X019850Y017400D01*
X020100Y016400D02*
X020600Y016400D01*
X020600Y018650D02*
X020100Y018650D01*
X020600Y018650D02*
X020644Y018652D01*
X020687Y018658D01*
X020729Y018667D01*
X020771Y018680D01*
X020811Y018697D01*
X020850Y018717D01*
X020887Y018740D01*
X020921Y018767D01*
X020954Y018796D01*
X020983Y018829D01*
X021010Y018863D01*
X021033Y018900D01*
X021053Y018939D01*
X021070Y018979D01*
X021083Y019021D01*
X021092Y019063D01*
X021098Y019106D01*
X021100Y019150D01*
X021098Y019194D01*
X021092Y019237D01*
X021083Y019279D01*
X021070Y019321D01*
X021053Y019361D01*
X021033Y019400D01*
X021010Y019437D01*
X020983Y019471D01*
X020954Y019504D01*
X020921Y019533D01*
X020887Y019560D01*
X020850Y019583D01*
X020811Y019603D01*
X020771Y019620D01*
X020729Y019633D01*
X020687Y019642D01*
X020644Y019648D01*
X020600Y019650D01*
X020100Y019650D01*
X020350Y028650D02*
X015850Y028650D01*
X015806Y028652D01*
X015763Y028658D01*
X015721Y028667D01*
X015679Y028680D01*
X015639Y028697D01*
X015600Y028717D01*
X015563Y028740D01*
X015529Y028767D01*
X015496Y028796D01*
X015467Y028829D01*
X015440Y028863D01*
X015417Y028900D01*
X015397Y028939D01*
X015380Y028979D01*
X015367Y029021D01*
X015358Y029063D01*
X015352Y029106D01*
X015350Y029150D01*
X015352Y029194D01*
X015358Y029237D01*
X015367Y029279D01*
X015380Y029321D01*
X015397Y029361D01*
X015417Y029400D01*
X015440Y029437D01*
X015467Y029471D01*
X015496Y029504D01*
X015529Y029533D01*
X015563Y029560D01*
X015600Y029583D01*
X015639Y029603D01*
X015679Y029620D01*
X015721Y029633D01*
X015763Y029642D01*
X015806Y029648D01*
X015850Y029650D01*
X020350Y029650D01*
X020350Y028650D01*
X020850Y028650D01*
X020894Y028652D01*
X020937Y028658D01*
X020979Y028667D01*
X021021Y028680D01*
X021061Y028697D01*
X021100Y028717D01*
X021137Y028740D01*
X021171Y028767D01*
X021204Y028796D01*
X021233Y028829D01*
X021260Y028863D01*
X021283Y028900D01*
X021303Y028939D01*
X021320Y028979D01*
X021333Y029021D01*
X021342Y029063D01*
X021348Y029106D01*
X021350Y029150D01*
X021348Y029194D01*
X021342Y029237D01*
X021333Y029279D01*
X021320Y029321D01*
X021303Y029361D01*
X021283Y029400D01*
X021260Y029437D01*
X021233Y029471D01*
X021204Y029504D01*
X021171Y029533D01*
X021137Y029560D01*
X021100Y029583D01*
X021061Y029603D01*
X021021Y029620D01*
X020979Y029633D01*
X020937Y029642D01*
X020894Y029648D01*
X020850Y029650D01*
X020350Y029650D01*
X005100Y028900D02*
X005100Y027900D01*
X003100Y027900D01*
X003100Y028900D01*
X005100Y028900D01*
X004100Y028650D02*
X004100Y028150D01*
D18*
X014310Y018880D03*
X014560Y025880D03*
X014560Y008880D03*
X014310Y000880D03*
D19*
X013000Y002650D03*
X013250Y010650D03*
X013000Y020650D03*
X013250Y027650D03*
D20*
X013500Y029375D03*
X013500Y025925D03*
X013250Y022375D03*
X013250Y018925D03*
X013500Y012375D03*
X013500Y008925D03*
X013250Y004375D03*
X013250Y000925D03*
D21*
X013250Y002150D03*
X013250Y003150D03*
X013500Y010150D03*
X013500Y011150D03*
X013250Y020150D03*
X013250Y021150D03*
X013500Y027150D03*
X013500Y028150D03*
D22*
X013119Y023977D02*
X013197Y024022D01*
X013197Y024021D02*
X013225Y023977D01*
X013256Y023935D01*
X013289Y023895D01*
X013325Y023857D01*
X013364Y023822D01*
X013405Y023790D01*
X013449Y023760D01*
X013494Y023734D01*
X013541Y023711D01*
X013589Y023691D01*
X013639Y023675D01*
X013689Y023662D01*
X013741Y023653D01*
X013793Y023647D01*
X013845Y023645D01*
X013846Y023556D01*
X013845Y023555D01*
X013790Y023557D01*
X013736Y023563D01*
X013681Y023572D01*
X013628Y023585D01*
X013576Y023601D01*
X013524Y023620D01*
X013474Y023643D01*
X013426Y023669D01*
X013379Y023698D01*
X013335Y023730D01*
X013292Y023765D01*
X013252Y023803D01*
X013215Y023843D01*
X013180Y023885D01*
X013148Y023930D01*
X013119Y023976D01*
X013127Y023981D01*
X013155Y023935D01*
X013187Y023891D01*
X013222Y023849D01*
X013259Y023809D01*
X013298Y023772D01*
X013340Y023737D01*
X013384Y023706D01*
X013430Y023677D01*
X013478Y023651D01*
X013528Y023629D01*
X013578Y023609D01*
X013630Y023593D01*
X013683Y023581D01*
X013737Y023572D01*
X013791Y023566D01*
X013845Y023564D01*
X013845Y023573D01*
X013791Y023575D01*
X013738Y023581D01*
X013685Y023590D01*
X013633Y023602D01*
X013581Y023618D01*
X013531Y023637D01*
X013482Y023659D01*
X013435Y023685D01*
X013389Y023713D01*
X013346Y023745D01*
X013304Y023779D01*
X013265Y023815D01*
X013228Y023855D01*
X013194Y023896D01*
X013163Y023940D01*
X013134Y023985D01*
X013142Y023990D01*
X013172Y023942D01*
X013206Y023896D01*
X013242Y023853D01*
X013282Y023812D01*
X013324Y023774D01*
X013368Y023739D01*
X013415Y023707D01*
X013464Y023679D01*
X013515Y023654D01*
X013568Y023632D01*
X013621Y023615D01*
X013676Y023601D01*
X013732Y023591D01*
X013788Y023584D01*
X013845Y023582D01*
X013845Y023591D01*
X013789Y023593D01*
X013733Y023599D01*
X013678Y023609D01*
X013624Y023623D01*
X013571Y023641D01*
X013519Y023662D01*
X013468Y023687D01*
X013420Y023715D01*
X013374Y023746D01*
X013329Y023781D01*
X013288Y023818D01*
X013249Y023859D01*
X013213Y023901D01*
X013180Y023947D01*
X013150Y023994D01*
X013158Y023999D01*
X013187Y023952D01*
X013220Y023907D01*
X013256Y023865D01*
X013294Y023825D01*
X013335Y023788D01*
X013379Y023753D01*
X013425Y023722D01*
X013473Y023695D01*
X013522Y023670D01*
X013574Y023649D01*
X013626Y023632D01*
X013680Y023618D01*
X013735Y023608D01*
X013790Y023602D01*
X013845Y023600D01*
X013845Y023609D01*
X013790Y023611D01*
X013736Y023617D01*
X013682Y023627D01*
X013629Y023641D01*
X013577Y023658D01*
X013526Y023678D01*
X013477Y023703D01*
X013430Y023730D01*
X013384Y023761D01*
X013341Y023794D01*
X013300Y023831D01*
X013262Y023871D01*
X013227Y023913D01*
X013195Y023957D01*
X013166Y024003D01*
X013174Y024008D01*
X013202Y023962D01*
X013234Y023918D01*
X013269Y023877D01*
X013307Y023838D01*
X013347Y023801D01*
X013389Y023768D01*
X013434Y023738D01*
X013481Y023710D01*
X013530Y023687D01*
X013580Y023666D01*
X013631Y023649D01*
X013684Y023636D01*
X013737Y023626D01*
X013791Y023620D01*
X013845Y023618D01*
X013845Y023627D01*
X013792Y023629D01*
X013738Y023635D01*
X013686Y023645D01*
X013634Y023658D01*
X013583Y023675D01*
X013533Y023695D01*
X013485Y023718D01*
X013439Y023745D01*
X013395Y023775D01*
X013353Y023808D01*
X013313Y023844D01*
X013276Y023883D01*
X013241Y023924D01*
X013210Y023967D01*
X013181Y024012D01*
X013189Y024017D01*
X013217Y023972D01*
X013248Y023929D01*
X013282Y023889D01*
X013319Y023851D01*
X013358Y023815D01*
X013400Y023783D01*
X013444Y023753D01*
X013490Y023726D01*
X013537Y023703D01*
X013586Y023683D01*
X013636Y023666D01*
X013688Y023653D01*
X013740Y023644D01*
X013792Y023638D01*
X013845Y023636D01*
X013845Y025244D02*
X013845Y025154D01*
X013845Y025155D02*
X013791Y025153D01*
X013738Y025147D01*
X013685Y025137D01*
X013633Y025123D01*
X013582Y025106D01*
X013533Y025085D01*
X013485Y025061D01*
X013439Y025033D01*
X013395Y025002D01*
X013353Y024968D01*
X013314Y024932D01*
X013277Y024892D01*
X013244Y024850D01*
X013213Y024806D01*
X013186Y024760D01*
X013107Y024802D01*
X013135Y024851D01*
X013167Y024897D01*
X013202Y024942D01*
X013239Y024984D01*
X013280Y025024D01*
X013323Y025060D01*
X013368Y025094D01*
X013415Y025125D01*
X013465Y025152D01*
X013516Y025176D01*
X013568Y025197D01*
X013622Y025214D01*
X013677Y025227D01*
X013732Y025237D01*
X013789Y025243D01*
X013845Y025245D01*
X013845Y025236D01*
X013789Y025234D01*
X013734Y025228D01*
X013679Y025218D01*
X013624Y025205D01*
X013571Y025188D01*
X013519Y025168D01*
X013469Y025144D01*
X013420Y025117D01*
X013373Y025087D01*
X013328Y025053D01*
X013286Y025017D01*
X013246Y024978D01*
X013209Y024936D01*
X013174Y024892D01*
X013143Y024846D01*
X013115Y024798D01*
X013123Y024794D01*
X013151Y024841D01*
X013182Y024887D01*
X013216Y024930D01*
X013252Y024972D01*
X013292Y025010D01*
X013334Y025046D01*
X013378Y025079D01*
X013424Y025109D01*
X013473Y025136D01*
X013523Y025159D01*
X013574Y025180D01*
X013627Y025196D01*
X013680Y025209D01*
X013735Y025219D01*
X013790Y025225D01*
X013845Y025227D01*
X013845Y025218D01*
X013790Y025216D01*
X013736Y025210D01*
X013682Y025201D01*
X013629Y025188D01*
X013577Y025171D01*
X013526Y025151D01*
X013477Y025128D01*
X013429Y025101D01*
X013383Y025072D01*
X013339Y025039D01*
X013298Y025004D01*
X013259Y024965D01*
X013222Y024925D01*
X013189Y024882D01*
X013158Y024836D01*
X013131Y024789D01*
X013139Y024785D01*
X013166Y024832D01*
X013196Y024876D01*
X013229Y024919D01*
X013265Y024959D01*
X013304Y024997D01*
X013345Y025032D01*
X013388Y025064D01*
X013434Y025094D01*
X013481Y025120D01*
X013530Y025143D01*
X013580Y025163D01*
X013632Y025179D01*
X013684Y025192D01*
X013737Y025201D01*
X013791Y025207D01*
X013845Y025209D01*
X013845Y025200D01*
X013792Y025198D01*
X013739Y025192D01*
X013686Y025183D01*
X013634Y025170D01*
X013583Y025154D01*
X013533Y025135D01*
X013485Y025112D01*
X013438Y025086D01*
X013394Y025057D01*
X013351Y025025D01*
X013310Y024990D01*
X013272Y024953D01*
X013236Y024913D01*
X013203Y024871D01*
X013173Y024827D01*
X013146Y024781D01*
X013154Y024777D01*
X013181Y024822D01*
X013211Y024866D01*
X013243Y024907D01*
X013278Y024947D01*
X013316Y024984D01*
X013356Y025018D01*
X013399Y025050D01*
X013443Y025078D01*
X013489Y025104D01*
X013537Y025126D01*
X013586Y025146D01*
X013636Y025162D01*
X013688Y025174D01*
X013740Y025183D01*
X013792Y025189D01*
X013845Y025191D01*
X013845Y025182D01*
X013789Y025180D01*
X013734Y025173D01*
X013679Y025163D01*
X013625Y025149D01*
X013573Y025131D01*
X013521Y025110D01*
X013472Y025084D01*
X013424Y025056D01*
X013378Y025024D01*
X013335Y024989D01*
X013295Y024951D01*
X013257Y024910D01*
X013222Y024866D01*
X013191Y024820D01*
X013162Y024772D01*
X013170Y024768D01*
X013198Y024816D01*
X013229Y024861D01*
X013264Y024904D01*
X013301Y024944D01*
X013341Y024982D01*
X013384Y025017D01*
X013429Y025048D01*
X013476Y025077D01*
X013525Y025101D01*
X013576Y025123D01*
X013628Y025140D01*
X013681Y025154D01*
X013735Y025164D01*
X013790Y025171D01*
X013845Y025173D01*
X013845Y025164D01*
X013791Y025162D01*
X013737Y025156D01*
X013683Y025146D01*
X013631Y025132D01*
X013579Y025114D01*
X013529Y025093D01*
X013480Y025069D01*
X013434Y025041D01*
X013389Y025009D01*
X013347Y024975D01*
X013308Y024938D01*
X013271Y024898D01*
X013237Y024856D01*
X013206Y024811D01*
X013178Y024764D01*
X014495Y024944D02*
X014426Y024887D01*
X014427Y024887D02*
X014390Y024927D01*
X014351Y024965D01*
X014309Y024999D01*
X014265Y025031D01*
X014219Y025059D01*
X014170Y025084D01*
X014120Y025105D01*
X014069Y025123D01*
X014016Y025136D01*
X013963Y025146D01*
X013909Y025153D01*
X013855Y025155D01*
X013854Y025244D01*
X013855Y025245D01*
X013911Y025243D01*
X013967Y025237D01*
X014022Y025227D01*
X014077Y025214D01*
X014130Y025197D01*
X014183Y025177D01*
X014234Y025153D01*
X014283Y025126D01*
X014330Y025095D01*
X014375Y025062D01*
X014418Y025026D01*
X014458Y024987D01*
X014496Y024945D01*
X014489Y024939D01*
X014452Y024980D01*
X014412Y025019D01*
X014370Y025055D01*
X014325Y025088D01*
X014278Y025118D01*
X014230Y025145D01*
X014179Y025168D01*
X014127Y025189D01*
X014074Y025205D01*
X014020Y025218D01*
X013966Y025228D01*
X013911Y025234D01*
X013855Y025236D01*
X013855Y025227D01*
X013910Y025225D01*
X013965Y025219D01*
X014019Y025210D01*
X014072Y025197D01*
X014124Y025180D01*
X014176Y025160D01*
X014225Y025137D01*
X014274Y025110D01*
X014320Y025081D01*
X014364Y025048D01*
X014406Y025012D01*
X014445Y024974D01*
X014482Y024933D01*
X014475Y024928D01*
X014439Y024968D01*
X014400Y025006D01*
X014358Y025041D01*
X014315Y025073D01*
X014269Y025103D01*
X014221Y025129D01*
X014172Y025152D01*
X014122Y025172D01*
X014070Y025188D01*
X014017Y025201D01*
X013963Y025210D01*
X013909Y025216D01*
X013855Y025218D01*
X013855Y025209D01*
X013909Y025207D01*
X013962Y025201D01*
X014015Y025192D01*
X014067Y025179D01*
X014119Y025163D01*
X014169Y025144D01*
X014217Y025121D01*
X014264Y025095D01*
X014310Y025066D01*
X014353Y025034D01*
X014394Y024999D01*
X014432Y024962D01*
X014468Y024922D01*
X014461Y024916D01*
X014426Y024955D01*
X014388Y024992D01*
X014347Y025027D01*
X014304Y025058D01*
X014260Y025087D01*
X014213Y025113D01*
X014165Y025135D01*
X014116Y025155D01*
X014065Y025171D01*
X014013Y025183D01*
X013961Y025192D01*
X013908Y025198D01*
X013855Y025200D01*
X013855Y025191D01*
X013907Y025189D01*
X013960Y025183D01*
X014011Y025174D01*
X014062Y025162D01*
X014113Y025146D01*
X014162Y025127D01*
X014209Y025105D01*
X014255Y025079D01*
X014299Y025051D01*
X014341Y025020D01*
X014382Y024986D01*
X014419Y024949D01*
X014454Y024910D01*
X014448Y024904D01*
X014413Y024943D01*
X014375Y024979D01*
X014336Y025013D01*
X014294Y025044D01*
X014250Y025072D01*
X014205Y025097D01*
X014158Y025119D01*
X014110Y025138D01*
X014060Y025153D01*
X014010Y025166D01*
X013958Y025174D01*
X013907Y025180D01*
X013855Y025182D01*
X013855Y025173D01*
X013906Y025171D01*
X013957Y025166D01*
X014008Y025157D01*
X014058Y025145D01*
X014107Y025129D01*
X014154Y025111D01*
X014201Y025089D01*
X014246Y025064D01*
X014289Y025036D01*
X014330Y025006D01*
X014369Y024973D01*
X014406Y024937D01*
X014441Y024899D01*
X014434Y024893D01*
X014397Y024934D01*
X014357Y024972D01*
X014315Y025006D01*
X014270Y025038D01*
X014223Y025067D01*
X014174Y025092D01*
X014123Y025113D01*
X014072Y025131D01*
X014018Y025145D01*
X013964Y025155D01*
X013910Y025162D01*
X013855Y025164D01*
X013854Y023556D02*
X013854Y023646D01*
X013855Y023645D02*
X013909Y023647D01*
X013962Y023653D01*
X014015Y023663D01*
X014067Y023677D01*
X014118Y023694D01*
X014168Y023715D01*
X014216Y023739D01*
X014262Y023767D01*
X014306Y023798D01*
X014347Y023832D01*
X014387Y023869D01*
X014423Y023908D01*
X014491Y023851D01*
X014492Y023850D01*
X014454Y023809D01*
X014414Y023771D01*
X014371Y023735D01*
X014326Y023702D01*
X014279Y023672D01*
X014231Y023646D01*
X014180Y023622D01*
X014128Y023602D01*
X014075Y023586D01*
X014021Y023572D01*
X013966Y023563D01*
X013911Y023557D01*
X013855Y023555D01*
X013855Y023564D01*
X013910Y023566D01*
X013965Y023572D01*
X014019Y023581D01*
X014073Y023594D01*
X014125Y023611D01*
X014177Y023630D01*
X014227Y023654D01*
X014275Y023680D01*
X014321Y023710D01*
X014366Y023742D01*
X014408Y023777D01*
X014448Y023816D01*
X014485Y023856D01*
X014478Y023862D01*
X014441Y023822D01*
X014402Y023784D01*
X014360Y023749D01*
X014316Y023717D01*
X014270Y023688D01*
X014222Y023662D01*
X014173Y023639D01*
X014122Y023619D01*
X014070Y023603D01*
X014017Y023590D01*
X013964Y023581D01*
X013909Y023575D01*
X013855Y023573D01*
X013855Y023582D01*
X013909Y023584D01*
X013962Y023590D01*
X014015Y023599D01*
X014068Y023612D01*
X014119Y023628D01*
X014170Y023647D01*
X014218Y023670D01*
X014266Y023695D01*
X014311Y023724D01*
X014355Y023756D01*
X014396Y023791D01*
X014435Y023828D01*
X014471Y023868D01*
X014464Y023874D01*
X014428Y023834D01*
X014390Y023797D01*
X014349Y023763D01*
X014306Y023732D01*
X014261Y023703D01*
X014214Y023678D01*
X014166Y023655D01*
X014116Y023636D01*
X014065Y023620D01*
X014014Y023608D01*
X013961Y023599D01*
X013908Y023593D01*
X013855Y023591D01*
X013855Y023600D01*
X013908Y023602D01*
X013960Y023608D01*
X014012Y023617D01*
X014063Y023629D01*
X014113Y023645D01*
X014163Y023664D01*
X014210Y023686D01*
X014257Y023711D01*
X014301Y023739D01*
X014343Y023770D01*
X014384Y023804D01*
X014422Y023841D01*
X014457Y023879D01*
X014451Y023885D01*
X014415Y023847D01*
X014378Y023811D01*
X014338Y023777D01*
X014296Y023747D01*
X014252Y023719D01*
X014206Y023694D01*
X014159Y023672D01*
X014110Y023653D01*
X014061Y023638D01*
X014010Y023625D01*
X013959Y023617D01*
X013907Y023611D01*
X013855Y023609D01*
X013855Y023618D01*
X013911Y023620D01*
X013966Y023627D01*
X014021Y023637D01*
X014075Y023651D01*
X014128Y023669D01*
X014179Y023691D01*
X014229Y023716D01*
X014277Y023745D01*
X014322Y023777D01*
X014365Y023812D01*
X014406Y023850D01*
X014444Y023891D01*
X014437Y023897D01*
X014400Y023856D01*
X014359Y023819D01*
X014317Y023784D01*
X014272Y023752D01*
X014224Y023724D01*
X014175Y023699D01*
X014124Y023677D01*
X014072Y023660D01*
X014019Y023646D01*
X013965Y023636D01*
X013910Y023629D01*
X013855Y023627D01*
X013855Y023636D01*
X013909Y023638D01*
X013963Y023644D01*
X014017Y023654D01*
X014070Y023668D01*
X014121Y023686D01*
X014171Y023707D01*
X014220Y023732D01*
X014267Y023760D01*
X014311Y023791D01*
X014353Y023825D01*
X014393Y023863D01*
X014430Y023903D01*
X022355Y023556D02*
X022355Y023646D01*
X022355Y023645D02*
X022409Y023647D01*
X022462Y023653D01*
X022515Y023663D01*
X022567Y023677D01*
X022618Y023694D01*
X022667Y023715D01*
X022715Y023739D01*
X022761Y023767D01*
X022805Y023798D01*
X022847Y023832D01*
X022886Y023868D01*
X022923Y023908D01*
X022956Y023950D01*
X022987Y023994D01*
X023014Y024040D01*
X023093Y023998D01*
X023065Y023949D01*
X023033Y023903D01*
X022998Y023858D01*
X022961Y023816D01*
X022920Y023776D01*
X022877Y023740D01*
X022832Y023706D01*
X022785Y023675D01*
X022735Y023648D01*
X022684Y023624D01*
X022632Y023603D01*
X022578Y023586D01*
X022523Y023573D01*
X022468Y023563D01*
X022411Y023557D01*
X022355Y023555D01*
X022355Y023564D01*
X022411Y023566D01*
X022466Y023572D01*
X022521Y023582D01*
X022576Y023595D01*
X022629Y023612D01*
X022681Y023632D01*
X022731Y023656D01*
X022780Y023683D01*
X022827Y023713D01*
X022872Y023747D01*
X022914Y023783D01*
X022954Y023822D01*
X022991Y023864D01*
X023026Y023908D01*
X023057Y023954D01*
X023085Y024002D01*
X023077Y024006D01*
X023049Y023959D01*
X023018Y023913D01*
X022984Y023870D01*
X022948Y023828D01*
X022908Y023790D01*
X022866Y023754D01*
X022822Y023721D01*
X022776Y023691D01*
X022727Y023664D01*
X022677Y023641D01*
X022626Y023620D01*
X022573Y023604D01*
X022520Y023591D01*
X022465Y023581D01*
X022410Y023575D01*
X022355Y023573D01*
X022355Y023582D01*
X022410Y023584D01*
X022464Y023590D01*
X022518Y023599D01*
X022571Y023612D01*
X022623Y023629D01*
X022674Y023649D01*
X022723Y023672D01*
X022771Y023699D01*
X022817Y023728D01*
X022861Y023761D01*
X022902Y023796D01*
X022941Y023835D01*
X022978Y023875D01*
X023011Y023918D01*
X023042Y023964D01*
X023069Y024011D01*
X023061Y024015D01*
X023034Y023968D01*
X023004Y023924D01*
X022971Y023881D01*
X022935Y023841D01*
X022896Y023803D01*
X022855Y023768D01*
X022812Y023736D01*
X022766Y023706D01*
X022719Y023680D01*
X022670Y023657D01*
X022620Y023637D01*
X022568Y023621D01*
X022516Y023608D01*
X022463Y023599D01*
X022409Y023593D01*
X022355Y023591D01*
X022355Y023600D01*
X022408Y023602D01*
X022461Y023608D01*
X022514Y023617D01*
X022566Y023630D01*
X022617Y023646D01*
X022667Y023665D01*
X022715Y023688D01*
X022762Y023714D01*
X022806Y023743D01*
X022849Y023775D01*
X022890Y023810D01*
X022928Y023847D01*
X022964Y023887D01*
X022997Y023929D01*
X023027Y023973D01*
X023054Y024019D01*
X023046Y024023D01*
X023019Y023978D01*
X022989Y023934D01*
X022957Y023893D01*
X022922Y023853D01*
X022884Y023816D01*
X022844Y023782D01*
X022801Y023750D01*
X022757Y023722D01*
X022711Y023696D01*
X022663Y023674D01*
X022614Y023654D01*
X022564Y023638D01*
X022512Y023626D01*
X022460Y023617D01*
X022408Y023611D01*
X022355Y023609D01*
X022355Y023618D01*
X022411Y023620D01*
X022466Y023627D01*
X022521Y023637D01*
X022575Y023651D01*
X022627Y023669D01*
X022679Y023690D01*
X022728Y023716D01*
X022776Y023744D01*
X022822Y023776D01*
X022865Y023811D01*
X022905Y023849D01*
X022943Y023890D01*
X022978Y023934D01*
X023009Y023980D01*
X023038Y024028D01*
X023030Y024032D01*
X023002Y023984D01*
X022971Y023939D01*
X022936Y023896D01*
X022899Y023856D01*
X022859Y023818D01*
X022816Y023783D01*
X022771Y023752D01*
X022724Y023723D01*
X022675Y023699D01*
X022624Y023677D01*
X022572Y023660D01*
X022519Y023646D01*
X022465Y023636D01*
X022410Y023629D01*
X022355Y023627D01*
X022355Y023636D01*
X022409Y023638D01*
X022463Y023644D01*
X022517Y023654D01*
X022569Y023668D01*
X022621Y023686D01*
X022671Y023707D01*
X022720Y023731D01*
X022766Y023759D01*
X022811Y023791D01*
X022853Y023825D01*
X022892Y023862D01*
X022929Y023902D01*
X022963Y023944D01*
X022994Y023989D01*
X023022Y024036D01*
X023081Y024823D02*
X023003Y024778D01*
X023003Y024779D02*
X022975Y024823D01*
X022944Y024865D01*
X022911Y024905D01*
X022875Y024943D01*
X022836Y024978D01*
X022795Y025010D01*
X022751Y025040D01*
X022706Y025066D01*
X022659Y025089D01*
X022611Y025109D01*
X022561Y025125D01*
X022511Y025138D01*
X022459Y025147D01*
X022407Y025153D01*
X022355Y025155D01*
X022354Y025244D01*
X022355Y025245D01*
X022410Y025243D01*
X022464Y025237D01*
X022519Y025228D01*
X022572Y025215D01*
X022624Y025199D01*
X022676Y025180D01*
X022726Y025157D01*
X022774Y025131D01*
X022821Y025102D01*
X022865Y025070D01*
X022908Y025035D01*
X022948Y024997D01*
X022985Y024957D01*
X023020Y024915D01*
X023052Y024870D01*
X023081Y024824D01*
X023073Y024819D01*
X023045Y024865D01*
X023013Y024909D01*
X022978Y024951D01*
X022941Y024991D01*
X022902Y025028D01*
X022860Y025063D01*
X022816Y025094D01*
X022770Y025123D01*
X022722Y025149D01*
X022672Y025171D01*
X022622Y025191D01*
X022570Y025207D01*
X022517Y025219D01*
X022463Y025228D01*
X022409Y025234D01*
X022355Y025236D01*
X022355Y025227D01*
X022409Y025225D01*
X022462Y025219D01*
X022515Y025210D01*
X022567Y025198D01*
X022619Y025182D01*
X022669Y025163D01*
X022718Y025141D01*
X022765Y025115D01*
X022811Y025087D01*
X022854Y025055D01*
X022896Y025021D01*
X022935Y024985D01*
X022972Y024945D01*
X023006Y024904D01*
X023037Y024860D01*
X023066Y024815D01*
X023058Y024810D01*
X023028Y024858D01*
X022994Y024904D01*
X022958Y024947D01*
X022918Y024988D01*
X022876Y025026D01*
X022832Y025061D01*
X022785Y025093D01*
X022736Y025121D01*
X022685Y025146D01*
X022632Y025168D01*
X022579Y025185D01*
X022524Y025199D01*
X022468Y025209D01*
X022412Y025216D01*
X022355Y025218D01*
X022355Y025209D01*
X022411Y025207D01*
X022467Y025201D01*
X022522Y025191D01*
X022576Y025177D01*
X022629Y025159D01*
X022681Y025138D01*
X022732Y025113D01*
X022780Y025085D01*
X022826Y025054D01*
X022871Y025019D01*
X022912Y024982D01*
X022951Y024941D01*
X022987Y024899D01*
X023020Y024853D01*
X023050Y024806D01*
X023042Y024801D01*
X023013Y024848D01*
X022980Y024893D01*
X022944Y024935D01*
X022906Y024975D01*
X022865Y025012D01*
X022821Y025047D01*
X022775Y025078D01*
X022727Y025105D01*
X022678Y025130D01*
X022626Y025151D01*
X022574Y025168D01*
X022520Y025182D01*
X022465Y025192D01*
X022410Y025198D01*
X022355Y025200D01*
X022355Y025191D01*
X022410Y025189D01*
X022464Y025183D01*
X022518Y025173D01*
X022571Y025159D01*
X022623Y025142D01*
X022674Y025122D01*
X022723Y025097D01*
X022770Y025070D01*
X022816Y025039D01*
X022859Y025006D01*
X022900Y024969D01*
X022938Y024929D01*
X022973Y024887D01*
X023005Y024843D01*
X023034Y024797D01*
X023026Y024792D01*
X022998Y024838D01*
X022966Y024882D01*
X022931Y024923D01*
X022893Y024962D01*
X022853Y024999D01*
X022811Y025032D01*
X022766Y025062D01*
X022719Y025090D01*
X022670Y025113D01*
X022620Y025134D01*
X022569Y025151D01*
X022516Y025164D01*
X022463Y025174D01*
X022409Y025180D01*
X022355Y025182D01*
X022355Y025173D01*
X022408Y025171D01*
X022462Y025165D01*
X022514Y025155D01*
X022566Y025142D01*
X022617Y025125D01*
X022667Y025105D01*
X022715Y025082D01*
X022761Y025055D01*
X022805Y025025D01*
X022847Y024992D01*
X022887Y024956D01*
X022924Y024917D01*
X022959Y024876D01*
X022990Y024833D01*
X023019Y024788D01*
X023011Y024783D01*
X022983Y024828D01*
X022952Y024871D01*
X022918Y024911D01*
X022881Y024949D01*
X022842Y024985D01*
X022800Y025017D01*
X022756Y025047D01*
X022710Y025074D01*
X022663Y025097D01*
X022614Y025117D01*
X022564Y025134D01*
X022512Y025147D01*
X022460Y025156D01*
X022408Y025162D01*
X022355Y025164D01*
X022346Y025244D02*
X022346Y025154D01*
X022345Y025155D02*
X022291Y025153D01*
X022238Y025147D01*
X022185Y025137D01*
X022133Y025123D01*
X022082Y025106D01*
X022032Y025085D01*
X021984Y025061D01*
X021938Y025033D01*
X021894Y025002D01*
X021853Y024968D01*
X021813Y024931D01*
X021777Y024892D01*
X021709Y024949D01*
X021708Y024950D01*
X021746Y024991D01*
X021786Y025029D01*
X021829Y025065D01*
X021874Y025098D01*
X021921Y025128D01*
X021969Y025154D01*
X022020Y025178D01*
X022072Y025198D01*
X022125Y025214D01*
X022179Y025228D01*
X022234Y025237D01*
X022289Y025243D01*
X022345Y025245D01*
X022345Y025236D01*
X022290Y025234D01*
X022235Y025228D01*
X022181Y025219D01*
X022127Y025206D01*
X022075Y025189D01*
X022023Y025170D01*
X021973Y025146D01*
X021925Y025120D01*
X021879Y025090D01*
X021834Y025058D01*
X021792Y025023D01*
X021752Y024984D01*
X021715Y024944D01*
X021722Y024938D01*
X021759Y024978D01*
X021798Y025016D01*
X021840Y025051D01*
X021884Y025083D01*
X021930Y025112D01*
X021978Y025138D01*
X022027Y025161D01*
X022078Y025181D01*
X022130Y025197D01*
X022183Y025210D01*
X022236Y025219D01*
X022291Y025225D01*
X022345Y025227D01*
X022345Y025218D01*
X022291Y025216D01*
X022238Y025210D01*
X022185Y025201D01*
X022132Y025188D01*
X022081Y025172D01*
X022030Y025153D01*
X021982Y025130D01*
X021934Y025105D01*
X021889Y025076D01*
X021845Y025044D01*
X021804Y025009D01*
X021765Y024972D01*
X021729Y024932D01*
X021736Y024926D01*
X021772Y024966D01*
X021810Y025003D01*
X021851Y025037D01*
X021894Y025068D01*
X021939Y025097D01*
X021986Y025122D01*
X022034Y025145D01*
X022084Y025164D01*
X022135Y025180D01*
X022186Y025192D01*
X022239Y025201D01*
X022292Y025207D01*
X022345Y025209D01*
X022345Y025200D01*
X022292Y025198D01*
X022240Y025192D01*
X022188Y025183D01*
X022137Y025171D01*
X022087Y025155D01*
X022037Y025136D01*
X021990Y025114D01*
X021943Y025089D01*
X021899Y025061D01*
X021857Y025030D01*
X021816Y024996D01*
X021778Y024959D01*
X021743Y024921D01*
X021749Y024915D01*
X021785Y024953D01*
X021822Y024989D01*
X021862Y025023D01*
X021904Y025053D01*
X021948Y025081D01*
X021994Y025106D01*
X022041Y025128D01*
X022090Y025147D01*
X022139Y025162D01*
X022190Y025175D01*
X022241Y025183D01*
X022293Y025189D01*
X022345Y025191D01*
X022345Y025182D01*
X022289Y025180D01*
X022234Y025173D01*
X022179Y025163D01*
X022125Y025149D01*
X022072Y025131D01*
X022021Y025109D01*
X021971Y025084D01*
X021923Y025055D01*
X021878Y025023D01*
X021835Y024988D01*
X021794Y024950D01*
X021756Y024909D01*
X021763Y024903D01*
X021800Y024944D01*
X021841Y024981D01*
X021883Y025016D01*
X021928Y025048D01*
X021976Y025076D01*
X022025Y025101D01*
X022076Y025123D01*
X022128Y025140D01*
X022181Y025154D01*
X022235Y025164D01*
X022290Y025171D01*
X022345Y025173D01*
X022345Y025164D01*
X022291Y025162D01*
X022237Y025156D01*
X022183Y025146D01*
X022130Y025132D01*
X022079Y025114D01*
X022029Y025093D01*
X021980Y025068D01*
X021933Y025040D01*
X021889Y025009D01*
X021847Y024975D01*
X021807Y024937D01*
X021770Y024897D01*
X021705Y023856D02*
X021774Y023913D01*
X021773Y023913D02*
X021810Y023873D01*
X021849Y023835D01*
X021891Y023801D01*
X021935Y023769D01*
X021981Y023741D01*
X022030Y023716D01*
X022080Y023695D01*
X022131Y023677D01*
X022184Y023664D01*
X022237Y023654D01*
X022291Y023647D01*
X022345Y023645D01*
X022346Y023556D01*
X022345Y023555D01*
X022289Y023557D01*
X022233Y023563D01*
X022178Y023573D01*
X022123Y023586D01*
X022070Y023603D01*
X022017Y023623D01*
X021966Y023647D01*
X021917Y023674D01*
X021870Y023705D01*
X021825Y023738D01*
X021782Y023774D01*
X021742Y023813D01*
X021704Y023855D01*
X021711Y023861D01*
X021748Y023820D01*
X021788Y023781D01*
X021830Y023745D01*
X021875Y023712D01*
X021922Y023682D01*
X021970Y023655D01*
X022021Y023632D01*
X022073Y023611D01*
X022126Y023595D01*
X022180Y023582D01*
X022234Y023572D01*
X022289Y023566D01*
X022345Y023564D01*
X022345Y023573D01*
X022290Y023575D01*
X022235Y023581D01*
X022181Y023590D01*
X022128Y023603D01*
X022076Y023620D01*
X022024Y023640D01*
X021975Y023663D01*
X021926Y023690D01*
X021880Y023719D01*
X021836Y023752D01*
X021794Y023788D01*
X021755Y023826D01*
X021718Y023867D01*
X021725Y023872D01*
X021761Y023832D01*
X021800Y023794D01*
X021842Y023759D01*
X021885Y023727D01*
X021931Y023697D01*
X021979Y023671D01*
X022028Y023648D01*
X022078Y023628D01*
X022130Y023612D01*
X022183Y023599D01*
X022237Y023590D01*
X022291Y023584D01*
X022345Y023582D01*
X022345Y023591D01*
X022291Y023593D01*
X022238Y023599D01*
X022185Y023608D01*
X022133Y023621D01*
X022081Y023637D01*
X022031Y023656D01*
X021983Y023679D01*
X021936Y023705D01*
X021890Y023734D01*
X021847Y023766D01*
X021806Y023801D01*
X021768Y023838D01*
X021732Y023878D01*
X021739Y023884D01*
X021774Y023845D01*
X021812Y023808D01*
X021853Y023773D01*
X021896Y023742D01*
X021940Y023713D01*
X021987Y023687D01*
X022035Y023665D01*
X022084Y023645D01*
X022135Y023629D01*
X022187Y023617D01*
X022239Y023608D01*
X022292Y023602D01*
X022345Y023600D01*
X022345Y023609D01*
X022293Y023611D01*
X022240Y023617D01*
X022189Y023626D01*
X022138Y023638D01*
X022087Y023654D01*
X022038Y023673D01*
X021991Y023695D01*
X021945Y023721D01*
X021901Y023749D01*
X021859Y023780D01*
X021818Y023814D01*
X021781Y023851D01*
X021746Y023890D01*
X021752Y023896D01*
X021787Y023857D01*
X021825Y023821D01*
X021864Y023787D01*
X021906Y023756D01*
X021950Y023728D01*
X021995Y023703D01*
X022042Y023681D01*
X022090Y023662D01*
X022140Y023647D01*
X022190Y023634D01*
X022242Y023626D01*
X022293Y023620D01*
X022345Y023618D01*
X022345Y023627D01*
X022294Y023629D01*
X022243Y023634D01*
X022192Y023643D01*
X022142Y023655D01*
X022093Y023671D01*
X022046Y023689D01*
X021999Y023711D01*
X021954Y023736D01*
X021911Y023764D01*
X021870Y023794D01*
X021831Y023827D01*
X021794Y023863D01*
X021759Y023901D01*
X021766Y023907D01*
X021803Y023866D01*
X021843Y023828D01*
X021885Y023794D01*
X021930Y023762D01*
X021977Y023733D01*
X022026Y023708D01*
X022077Y023687D01*
X022128Y023669D01*
X022182Y023655D01*
X022236Y023645D01*
X022290Y023638D01*
X022345Y023636D01*
X014345Y007744D02*
X014345Y007654D01*
X014345Y007655D02*
X014291Y007653D01*
X014238Y007647D01*
X014185Y007637D01*
X014133Y007623D01*
X014082Y007606D01*
X014033Y007585D01*
X013985Y007561D01*
X013939Y007533D01*
X013895Y007502D01*
X013853Y007468D01*
X013814Y007432D01*
X013777Y007392D01*
X013744Y007350D01*
X013713Y007306D01*
X013686Y007260D01*
X013607Y007302D01*
X013635Y007351D01*
X013667Y007397D01*
X013702Y007442D01*
X013739Y007484D01*
X013780Y007524D01*
X013823Y007560D01*
X013868Y007594D01*
X013915Y007625D01*
X013965Y007652D01*
X014016Y007676D01*
X014068Y007697D01*
X014122Y007714D01*
X014177Y007727D01*
X014232Y007737D01*
X014289Y007743D01*
X014345Y007745D01*
X014345Y007736D01*
X014289Y007734D01*
X014234Y007728D01*
X014179Y007718D01*
X014124Y007705D01*
X014071Y007688D01*
X014019Y007668D01*
X013969Y007644D01*
X013920Y007617D01*
X013873Y007587D01*
X013828Y007553D01*
X013786Y007517D01*
X013746Y007478D01*
X013709Y007436D01*
X013674Y007392D01*
X013643Y007346D01*
X013615Y007298D01*
X013623Y007294D01*
X013651Y007341D01*
X013682Y007387D01*
X013716Y007430D01*
X013752Y007472D01*
X013792Y007510D01*
X013834Y007546D01*
X013878Y007579D01*
X013924Y007609D01*
X013973Y007636D01*
X014023Y007659D01*
X014074Y007680D01*
X014127Y007696D01*
X014180Y007709D01*
X014235Y007719D01*
X014290Y007725D01*
X014345Y007727D01*
X014345Y007718D01*
X014290Y007716D01*
X014236Y007710D01*
X014182Y007701D01*
X014129Y007688D01*
X014077Y007671D01*
X014026Y007651D01*
X013977Y007628D01*
X013929Y007601D01*
X013883Y007572D01*
X013839Y007539D01*
X013798Y007504D01*
X013759Y007465D01*
X013722Y007425D01*
X013689Y007382D01*
X013658Y007336D01*
X013631Y007289D01*
X013639Y007285D01*
X013666Y007332D01*
X013696Y007376D01*
X013729Y007419D01*
X013765Y007459D01*
X013804Y007497D01*
X013845Y007532D01*
X013888Y007564D01*
X013934Y007594D01*
X013981Y007620D01*
X014030Y007643D01*
X014080Y007663D01*
X014132Y007679D01*
X014184Y007692D01*
X014237Y007701D01*
X014291Y007707D01*
X014345Y007709D01*
X014345Y007700D01*
X014292Y007698D01*
X014239Y007692D01*
X014186Y007683D01*
X014134Y007670D01*
X014083Y007654D01*
X014033Y007635D01*
X013985Y007612D01*
X013938Y007586D01*
X013894Y007557D01*
X013851Y007525D01*
X013810Y007490D01*
X013772Y007453D01*
X013736Y007413D01*
X013703Y007371D01*
X013673Y007327D01*
X013646Y007281D01*
X013654Y007277D01*
X013681Y007322D01*
X013711Y007366D01*
X013743Y007407D01*
X013778Y007447D01*
X013816Y007484D01*
X013856Y007518D01*
X013899Y007550D01*
X013943Y007578D01*
X013989Y007604D01*
X014037Y007626D01*
X014086Y007646D01*
X014136Y007662D01*
X014188Y007674D01*
X014240Y007683D01*
X014292Y007689D01*
X014345Y007691D01*
X014345Y007682D01*
X014289Y007680D01*
X014234Y007673D01*
X014179Y007663D01*
X014125Y007649D01*
X014073Y007631D01*
X014021Y007610D01*
X013972Y007584D01*
X013924Y007556D01*
X013878Y007524D01*
X013835Y007489D01*
X013795Y007451D01*
X013757Y007410D01*
X013722Y007366D01*
X013691Y007320D01*
X013662Y007272D01*
X013670Y007268D01*
X013698Y007316D01*
X013729Y007361D01*
X013764Y007404D01*
X013801Y007444D01*
X013841Y007482D01*
X013884Y007517D01*
X013929Y007548D01*
X013976Y007577D01*
X014025Y007601D01*
X014076Y007623D01*
X014128Y007640D01*
X014181Y007654D01*
X014235Y007664D01*
X014290Y007671D01*
X014345Y007673D01*
X014345Y007664D01*
X014291Y007662D01*
X014237Y007656D01*
X014183Y007646D01*
X014131Y007632D01*
X014079Y007614D01*
X014029Y007593D01*
X013980Y007569D01*
X013934Y007541D01*
X013889Y007509D01*
X013847Y007475D01*
X013808Y007438D01*
X013771Y007398D01*
X013737Y007356D01*
X013706Y007311D01*
X013678Y007264D01*
X013619Y006477D02*
X013697Y006522D01*
X013697Y006521D02*
X013725Y006477D01*
X013756Y006435D01*
X013789Y006395D01*
X013825Y006357D01*
X013864Y006322D01*
X013905Y006290D01*
X013949Y006260D01*
X013994Y006234D01*
X014041Y006211D01*
X014089Y006191D01*
X014139Y006175D01*
X014189Y006162D01*
X014241Y006153D01*
X014293Y006147D01*
X014345Y006145D01*
X014346Y006056D01*
X014345Y006055D01*
X014290Y006057D01*
X014236Y006063D01*
X014181Y006072D01*
X014128Y006085D01*
X014076Y006101D01*
X014024Y006120D01*
X013974Y006143D01*
X013926Y006169D01*
X013879Y006198D01*
X013835Y006230D01*
X013792Y006265D01*
X013752Y006303D01*
X013715Y006343D01*
X013680Y006385D01*
X013648Y006430D01*
X013619Y006476D01*
X013627Y006481D01*
X013655Y006435D01*
X013687Y006391D01*
X013722Y006349D01*
X013759Y006309D01*
X013798Y006272D01*
X013840Y006237D01*
X013884Y006206D01*
X013930Y006177D01*
X013978Y006151D01*
X014028Y006129D01*
X014078Y006109D01*
X014130Y006093D01*
X014183Y006081D01*
X014237Y006072D01*
X014291Y006066D01*
X014345Y006064D01*
X014345Y006073D01*
X014291Y006075D01*
X014238Y006081D01*
X014185Y006090D01*
X014133Y006102D01*
X014081Y006118D01*
X014031Y006137D01*
X013982Y006159D01*
X013935Y006185D01*
X013889Y006213D01*
X013846Y006245D01*
X013804Y006279D01*
X013765Y006315D01*
X013728Y006355D01*
X013694Y006396D01*
X013663Y006440D01*
X013634Y006485D01*
X013642Y006490D01*
X013672Y006442D01*
X013706Y006396D01*
X013742Y006353D01*
X013782Y006312D01*
X013824Y006274D01*
X013868Y006239D01*
X013915Y006207D01*
X013964Y006179D01*
X014015Y006154D01*
X014068Y006132D01*
X014121Y006115D01*
X014176Y006101D01*
X014232Y006091D01*
X014288Y006084D01*
X014345Y006082D01*
X014345Y006091D01*
X014289Y006093D01*
X014233Y006099D01*
X014178Y006109D01*
X014124Y006123D01*
X014071Y006141D01*
X014019Y006162D01*
X013968Y006187D01*
X013920Y006215D01*
X013874Y006246D01*
X013829Y006281D01*
X013788Y006318D01*
X013749Y006359D01*
X013713Y006401D01*
X013680Y006447D01*
X013650Y006494D01*
X013658Y006499D01*
X013687Y006452D01*
X013720Y006407D01*
X013756Y006365D01*
X013794Y006325D01*
X013835Y006288D01*
X013879Y006253D01*
X013925Y006222D01*
X013973Y006195D01*
X014022Y006170D01*
X014074Y006149D01*
X014126Y006132D01*
X014180Y006118D01*
X014235Y006108D01*
X014290Y006102D01*
X014345Y006100D01*
X014345Y006109D01*
X014290Y006111D01*
X014236Y006117D01*
X014182Y006127D01*
X014129Y006141D01*
X014077Y006158D01*
X014026Y006178D01*
X013977Y006203D01*
X013930Y006230D01*
X013884Y006261D01*
X013841Y006294D01*
X013800Y006331D01*
X013762Y006371D01*
X013727Y006413D01*
X013695Y006457D01*
X013666Y006503D01*
X013674Y006508D01*
X013702Y006462D01*
X013734Y006418D01*
X013769Y006377D01*
X013807Y006338D01*
X013847Y006301D01*
X013889Y006268D01*
X013934Y006238D01*
X013981Y006210D01*
X014030Y006187D01*
X014080Y006166D01*
X014131Y006149D01*
X014184Y006136D01*
X014237Y006126D01*
X014291Y006120D01*
X014345Y006118D01*
X014345Y006127D01*
X014292Y006129D01*
X014238Y006135D01*
X014186Y006145D01*
X014134Y006158D01*
X014083Y006175D01*
X014033Y006195D01*
X013985Y006218D01*
X013939Y006245D01*
X013895Y006275D01*
X013853Y006308D01*
X013813Y006344D01*
X013776Y006383D01*
X013741Y006424D01*
X013710Y006467D01*
X013681Y006512D01*
X013689Y006517D01*
X013717Y006472D01*
X013748Y006429D01*
X013782Y006389D01*
X013819Y006351D01*
X013858Y006315D01*
X013900Y006283D01*
X013944Y006253D01*
X013990Y006226D01*
X014037Y006203D01*
X014086Y006183D01*
X014136Y006166D01*
X014188Y006153D01*
X014240Y006144D01*
X014292Y006138D01*
X014345Y006136D01*
X014354Y006056D02*
X014354Y006146D01*
X014355Y006145D02*
X014409Y006147D01*
X014462Y006153D01*
X014515Y006163D01*
X014567Y006177D01*
X014618Y006194D01*
X014668Y006215D01*
X014716Y006239D01*
X014762Y006267D01*
X014806Y006298D01*
X014847Y006332D01*
X014887Y006369D01*
X014923Y006408D01*
X014991Y006351D01*
X014992Y006350D01*
X014954Y006309D01*
X014914Y006271D01*
X014871Y006235D01*
X014826Y006202D01*
X014779Y006172D01*
X014731Y006146D01*
X014680Y006122D01*
X014628Y006102D01*
X014575Y006086D01*
X014521Y006072D01*
X014466Y006063D01*
X014411Y006057D01*
X014355Y006055D01*
X014355Y006064D01*
X014410Y006066D01*
X014465Y006072D01*
X014519Y006081D01*
X014573Y006094D01*
X014625Y006111D01*
X014677Y006130D01*
X014727Y006154D01*
X014775Y006180D01*
X014821Y006210D01*
X014866Y006242D01*
X014908Y006277D01*
X014948Y006316D01*
X014985Y006356D01*
X014978Y006362D01*
X014941Y006322D01*
X014902Y006284D01*
X014860Y006249D01*
X014816Y006217D01*
X014770Y006188D01*
X014722Y006162D01*
X014673Y006139D01*
X014622Y006119D01*
X014570Y006103D01*
X014517Y006090D01*
X014464Y006081D01*
X014409Y006075D01*
X014355Y006073D01*
X014355Y006082D01*
X014409Y006084D01*
X014462Y006090D01*
X014515Y006099D01*
X014568Y006112D01*
X014619Y006128D01*
X014670Y006147D01*
X014718Y006170D01*
X014766Y006195D01*
X014811Y006224D01*
X014855Y006256D01*
X014896Y006291D01*
X014935Y006328D01*
X014971Y006368D01*
X014964Y006374D01*
X014928Y006334D01*
X014890Y006297D01*
X014849Y006263D01*
X014806Y006232D01*
X014761Y006203D01*
X014714Y006178D01*
X014666Y006155D01*
X014616Y006136D01*
X014565Y006120D01*
X014514Y006108D01*
X014461Y006099D01*
X014408Y006093D01*
X014355Y006091D01*
X014355Y006100D01*
X014408Y006102D01*
X014460Y006108D01*
X014512Y006117D01*
X014563Y006129D01*
X014613Y006145D01*
X014663Y006164D01*
X014710Y006186D01*
X014757Y006211D01*
X014801Y006239D01*
X014843Y006270D01*
X014884Y006304D01*
X014922Y006341D01*
X014957Y006379D01*
X014951Y006385D01*
X014915Y006347D01*
X014878Y006311D01*
X014838Y006277D01*
X014796Y006247D01*
X014752Y006219D01*
X014706Y006194D01*
X014659Y006172D01*
X014610Y006153D01*
X014561Y006138D01*
X014510Y006125D01*
X014459Y006117D01*
X014407Y006111D01*
X014355Y006109D01*
X014355Y006118D01*
X014411Y006120D01*
X014466Y006127D01*
X014521Y006137D01*
X014575Y006151D01*
X014628Y006169D01*
X014679Y006191D01*
X014729Y006216D01*
X014777Y006245D01*
X014822Y006277D01*
X014865Y006312D01*
X014906Y006350D01*
X014944Y006391D01*
X014937Y006397D01*
X014900Y006356D01*
X014859Y006319D01*
X014817Y006284D01*
X014772Y006252D01*
X014724Y006224D01*
X014675Y006199D01*
X014624Y006177D01*
X014572Y006160D01*
X014519Y006146D01*
X014465Y006136D01*
X014410Y006129D01*
X014355Y006127D01*
X014355Y006136D01*
X014409Y006138D01*
X014463Y006144D01*
X014517Y006154D01*
X014570Y006168D01*
X014621Y006186D01*
X014671Y006207D01*
X014720Y006232D01*
X014767Y006260D01*
X014811Y006291D01*
X014853Y006325D01*
X014893Y006363D01*
X014930Y006403D01*
X014995Y007444D02*
X014926Y007387D01*
X014927Y007387D02*
X014890Y007427D01*
X014851Y007465D01*
X014809Y007499D01*
X014765Y007531D01*
X014719Y007559D01*
X014670Y007584D01*
X014620Y007605D01*
X014569Y007623D01*
X014516Y007636D01*
X014463Y007646D01*
X014409Y007653D01*
X014355Y007655D01*
X014354Y007744D01*
X014355Y007745D01*
X014411Y007743D01*
X014467Y007737D01*
X014522Y007727D01*
X014577Y007714D01*
X014630Y007697D01*
X014683Y007677D01*
X014734Y007653D01*
X014783Y007626D01*
X014830Y007595D01*
X014875Y007562D01*
X014918Y007526D01*
X014958Y007487D01*
X014996Y007445D01*
X014989Y007439D01*
X014952Y007480D01*
X014912Y007519D01*
X014870Y007555D01*
X014825Y007588D01*
X014778Y007618D01*
X014730Y007645D01*
X014679Y007668D01*
X014627Y007689D01*
X014574Y007705D01*
X014520Y007718D01*
X014466Y007728D01*
X014411Y007734D01*
X014355Y007736D01*
X014355Y007727D01*
X014410Y007725D01*
X014465Y007719D01*
X014519Y007710D01*
X014572Y007697D01*
X014624Y007680D01*
X014676Y007660D01*
X014725Y007637D01*
X014774Y007610D01*
X014820Y007581D01*
X014864Y007548D01*
X014906Y007512D01*
X014945Y007474D01*
X014982Y007433D01*
X014975Y007428D01*
X014939Y007468D01*
X014900Y007506D01*
X014858Y007541D01*
X014815Y007573D01*
X014769Y007603D01*
X014721Y007629D01*
X014672Y007652D01*
X014622Y007672D01*
X014570Y007688D01*
X014517Y007701D01*
X014463Y007710D01*
X014409Y007716D01*
X014355Y007718D01*
X014355Y007709D01*
X014409Y007707D01*
X014462Y007701D01*
X014515Y007692D01*
X014567Y007679D01*
X014619Y007663D01*
X014669Y007644D01*
X014717Y007621D01*
X014764Y007595D01*
X014810Y007566D01*
X014853Y007534D01*
X014894Y007499D01*
X014932Y007462D01*
X014968Y007422D01*
X014961Y007416D01*
X014926Y007455D01*
X014888Y007492D01*
X014847Y007527D01*
X014804Y007558D01*
X014760Y007587D01*
X014713Y007613D01*
X014665Y007635D01*
X014616Y007655D01*
X014565Y007671D01*
X014513Y007683D01*
X014461Y007692D01*
X014408Y007698D01*
X014355Y007700D01*
X014355Y007691D01*
X014407Y007689D01*
X014460Y007683D01*
X014511Y007674D01*
X014562Y007662D01*
X014613Y007646D01*
X014662Y007627D01*
X014709Y007605D01*
X014755Y007579D01*
X014799Y007551D01*
X014841Y007520D01*
X014882Y007486D01*
X014919Y007449D01*
X014954Y007410D01*
X014948Y007404D01*
X014913Y007443D01*
X014875Y007479D01*
X014836Y007513D01*
X014794Y007544D01*
X014750Y007572D01*
X014705Y007597D01*
X014658Y007619D01*
X014610Y007638D01*
X014560Y007653D01*
X014510Y007666D01*
X014458Y007674D01*
X014407Y007680D01*
X014355Y007682D01*
X014355Y007673D01*
X014406Y007671D01*
X014457Y007666D01*
X014508Y007657D01*
X014558Y007645D01*
X014607Y007629D01*
X014654Y007611D01*
X014701Y007589D01*
X014746Y007564D01*
X014789Y007536D01*
X014830Y007506D01*
X014869Y007473D01*
X014906Y007437D01*
X014941Y007399D01*
X014934Y007393D01*
X014897Y007434D01*
X014857Y007472D01*
X014815Y007506D01*
X014770Y007538D01*
X014723Y007567D01*
X014674Y007592D01*
X014623Y007613D01*
X014572Y007631D01*
X014518Y007645D01*
X014464Y007655D01*
X014410Y007662D01*
X014355Y007664D01*
X023855Y005806D02*
X023855Y005896D01*
X023855Y005895D02*
X023909Y005897D01*
X023962Y005903D01*
X024015Y005913D01*
X024067Y005927D01*
X024118Y005944D01*
X024167Y005965D01*
X024215Y005989D01*
X024261Y006017D01*
X024305Y006048D01*
X024347Y006082D01*
X024386Y006118D01*
X024423Y006158D01*
X024456Y006200D01*
X024487Y006244D01*
X024514Y006290D01*
X024593Y006248D01*
X024565Y006199D01*
X024533Y006153D01*
X024498Y006108D01*
X024461Y006066D01*
X024420Y006026D01*
X024377Y005990D01*
X024332Y005956D01*
X024285Y005925D01*
X024235Y005898D01*
X024184Y005874D01*
X024132Y005853D01*
X024078Y005836D01*
X024023Y005823D01*
X023968Y005813D01*
X023911Y005807D01*
X023855Y005805D01*
X023855Y005814D01*
X023911Y005816D01*
X023966Y005822D01*
X024021Y005832D01*
X024076Y005845D01*
X024129Y005862D01*
X024181Y005882D01*
X024231Y005906D01*
X024280Y005933D01*
X024327Y005963D01*
X024372Y005997D01*
X024414Y006033D01*
X024454Y006072D01*
X024491Y006114D01*
X024526Y006158D01*
X024557Y006204D01*
X024585Y006252D01*
X024577Y006256D01*
X024549Y006209D01*
X024518Y006163D01*
X024484Y006120D01*
X024448Y006078D01*
X024408Y006040D01*
X024366Y006004D01*
X024322Y005971D01*
X024276Y005941D01*
X024227Y005914D01*
X024177Y005891D01*
X024126Y005870D01*
X024073Y005854D01*
X024020Y005841D01*
X023965Y005831D01*
X023910Y005825D01*
X023855Y005823D01*
X023855Y005832D01*
X023910Y005834D01*
X023964Y005840D01*
X024018Y005849D01*
X024071Y005862D01*
X024123Y005879D01*
X024174Y005899D01*
X024223Y005922D01*
X024271Y005949D01*
X024317Y005978D01*
X024361Y006011D01*
X024402Y006046D01*
X024441Y006085D01*
X024478Y006125D01*
X024511Y006168D01*
X024542Y006214D01*
X024569Y006261D01*
X024561Y006265D01*
X024534Y006218D01*
X024504Y006174D01*
X024471Y006131D01*
X024435Y006091D01*
X024396Y006053D01*
X024355Y006018D01*
X024312Y005986D01*
X024266Y005956D01*
X024219Y005930D01*
X024170Y005907D01*
X024120Y005887D01*
X024068Y005871D01*
X024016Y005858D01*
X023963Y005849D01*
X023909Y005843D01*
X023855Y005841D01*
X023855Y005850D01*
X023908Y005852D01*
X023961Y005858D01*
X024014Y005867D01*
X024066Y005880D01*
X024117Y005896D01*
X024167Y005915D01*
X024215Y005938D01*
X024262Y005964D01*
X024306Y005993D01*
X024349Y006025D01*
X024390Y006060D01*
X024428Y006097D01*
X024464Y006137D01*
X024497Y006179D01*
X024527Y006223D01*
X024554Y006269D01*
X024546Y006273D01*
X024519Y006228D01*
X024489Y006184D01*
X024457Y006143D01*
X024422Y006103D01*
X024384Y006066D01*
X024344Y006032D01*
X024301Y006000D01*
X024257Y005972D01*
X024211Y005946D01*
X024163Y005924D01*
X024114Y005904D01*
X024064Y005888D01*
X024012Y005876D01*
X023960Y005867D01*
X023908Y005861D01*
X023855Y005859D01*
X023855Y005868D01*
X023911Y005870D01*
X023966Y005877D01*
X024021Y005887D01*
X024075Y005901D01*
X024127Y005919D01*
X024179Y005940D01*
X024228Y005966D01*
X024276Y005994D01*
X024322Y006026D01*
X024365Y006061D01*
X024405Y006099D01*
X024443Y006140D01*
X024478Y006184D01*
X024509Y006230D01*
X024538Y006278D01*
X024530Y006282D01*
X024502Y006234D01*
X024471Y006189D01*
X024436Y006146D01*
X024399Y006106D01*
X024359Y006068D01*
X024316Y006033D01*
X024271Y006002D01*
X024224Y005973D01*
X024175Y005949D01*
X024124Y005927D01*
X024072Y005910D01*
X024019Y005896D01*
X023965Y005886D01*
X023910Y005879D01*
X023855Y005877D01*
X023855Y005886D01*
X023909Y005888D01*
X023963Y005894D01*
X024017Y005904D01*
X024069Y005918D01*
X024121Y005936D01*
X024171Y005957D01*
X024220Y005981D01*
X024266Y006009D01*
X024311Y006041D01*
X024353Y006075D01*
X024392Y006112D01*
X024429Y006152D01*
X024463Y006194D01*
X024494Y006239D01*
X024522Y006286D01*
X024581Y007073D02*
X024503Y007028D01*
X024503Y007029D02*
X024475Y007073D01*
X024444Y007115D01*
X024411Y007155D01*
X024375Y007193D01*
X024336Y007228D01*
X024295Y007260D01*
X024251Y007290D01*
X024206Y007316D01*
X024159Y007339D01*
X024111Y007359D01*
X024061Y007375D01*
X024011Y007388D01*
X023959Y007397D01*
X023907Y007403D01*
X023855Y007405D01*
X023854Y007494D01*
X023855Y007495D01*
X023910Y007493D01*
X023964Y007487D01*
X024019Y007478D01*
X024072Y007465D01*
X024124Y007449D01*
X024176Y007430D01*
X024226Y007407D01*
X024274Y007381D01*
X024321Y007352D01*
X024365Y007320D01*
X024408Y007285D01*
X024448Y007247D01*
X024485Y007207D01*
X024520Y007165D01*
X024552Y007120D01*
X024581Y007074D01*
X024573Y007069D01*
X024545Y007115D01*
X024513Y007159D01*
X024478Y007201D01*
X024441Y007241D01*
X024402Y007278D01*
X024360Y007313D01*
X024316Y007344D01*
X024270Y007373D01*
X024222Y007399D01*
X024172Y007421D01*
X024122Y007441D01*
X024070Y007457D01*
X024017Y007469D01*
X023963Y007478D01*
X023909Y007484D01*
X023855Y007486D01*
X023855Y007477D01*
X023909Y007475D01*
X023962Y007469D01*
X024015Y007460D01*
X024067Y007448D01*
X024119Y007432D01*
X024169Y007413D01*
X024218Y007391D01*
X024265Y007365D01*
X024311Y007337D01*
X024354Y007305D01*
X024396Y007271D01*
X024435Y007235D01*
X024472Y007195D01*
X024506Y007154D01*
X024537Y007110D01*
X024566Y007065D01*
X024558Y007060D01*
X024528Y007108D01*
X024494Y007154D01*
X024458Y007197D01*
X024418Y007238D01*
X024376Y007276D01*
X024332Y007311D01*
X024285Y007343D01*
X024236Y007371D01*
X024185Y007396D01*
X024132Y007418D01*
X024079Y007435D01*
X024024Y007449D01*
X023968Y007459D01*
X023912Y007466D01*
X023855Y007468D01*
X023855Y007459D01*
X023911Y007457D01*
X023967Y007451D01*
X024022Y007441D01*
X024076Y007427D01*
X024129Y007409D01*
X024181Y007388D01*
X024232Y007363D01*
X024280Y007335D01*
X024326Y007304D01*
X024371Y007269D01*
X024412Y007232D01*
X024451Y007191D01*
X024487Y007149D01*
X024520Y007103D01*
X024550Y007056D01*
X024542Y007051D01*
X024513Y007098D01*
X024480Y007143D01*
X024444Y007185D01*
X024406Y007225D01*
X024365Y007262D01*
X024321Y007297D01*
X024275Y007328D01*
X024227Y007355D01*
X024178Y007380D01*
X024126Y007401D01*
X024074Y007418D01*
X024020Y007432D01*
X023965Y007442D01*
X023910Y007448D01*
X023855Y007450D01*
X023855Y007441D01*
X023910Y007439D01*
X023964Y007433D01*
X024018Y007423D01*
X024071Y007409D01*
X024123Y007392D01*
X024174Y007372D01*
X024223Y007347D01*
X024270Y007320D01*
X024316Y007289D01*
X024359Y007256D01*
X024400Y007219D01*
X024438Y007179D01*
X024473Y007137D01*
X024505Y007093D01*
X024534Y007047D01*
X024526Y007042D01*
X024498Y007088D01*
X024466Y007132D01*
X024431Y007173D01*
X024393Y007212D01*
X024353Y007249D01*
X024311Y007282D01*
X024266Y007312D01*
X024219Y007340D01*
X024170Y007363D01*
X024120Y007384D01*
X024069Y007401D01*
X024016Y007414D01*
X023963Y007424D01*
X023909Y007430D01*
X023855Y007432D01*
X023855Y007423D01*
X023908Y007421D01*
X023962Y007415D01*
X024014Y007405D01*
X024066Y007392D01*
X024117Y007375D01*
X024167Y007355D01*
X024215Y007332D01*
X024261Y007305D01*
X024305Y007275D01*
X024347Y007242D01*
X024387Y007206D01*
X024424Y007167D01*
X024459Y007126D01*
X024490Y007083D01*
X024519Y007038D01*
X024511Y007033D01*
X024483Y007078D01*
X024452Y007121D01*
X024418Y007161D01*
X024381Y007199D01*
X024342Y007235D01*
X024300Y007267D01*
X024256Y007297D01*
X024210Y007324D01*
X024163Y007347D01*
X024114Y007367D01*
X024064Y007384D01*
X024012Y007397D01*
X023960Y007406D01*
X023908Y007412D01*
X023855Y007414D01*
X023846Y007494D02*
X023846Y007404D01*
X023845Y007405D02*
X023791Y007403D01*
X023738Y007397D01*
X023685Y007387D01*
X023633Y007373D01*
X023582Y007356D01*
X023532Y007335D01*
X023484Y007311D01*
X023438Y007283D01*
X023394Y007252D01*
X023353Y007218D01*
X023313Y007181D01*
X023277Y007142D01*
X023209Y007199D01*
X023208Y007200D01*
X023246Y007241D01*
X023286Y007279D01*
X023329Y007315D01*
X023374Y007348D01*
X023421Y007378D01*
X023469Y007404D01*
X023520Y007428D01*
X023572Y007448D01*
X023625Y007464D01*
X023679Y007478D01*
X023734Y007487D01*
X023789Y007493D01*
X023845Y007495D01*
X023845Y007486D01*
X023790Y007484D01*
X023735Y007478D01*
X023681Y007469D01*
X023627Y007456D01*
X023575Y007439D01*
X023523Y007420D01*
X023473Y007396D01*
X023425Y007370D01*
X023379Y007340D01*
X023334Y007308D01*
X023292Y007273D01*
X023252Y007234D01*
X023215Y007194D01*
X023222Y007188D01*
X023259Y007228D01*
X023298Y007266D01*
X023340Y007301D01*
X023384Y007333D01*
X023430Y007362D01*
X023478Y007388D01*
X023527Y007411D01*
X023578Y007431D01*
X023630Y007447D01*
X023683Y007460D01*
X023736Y007469D01*
X023791Y007475D01*
X023845Y007477D01*
X023845Y007468D01*
X023791Y007466D01*
X023738Y007460D01*
X023685Y007451D01*
X023632Y007438D01*
X023581Y007422D01*
X023530Y007403D01*
X023482Y007380D01*
X023434Y007355D01*
X023389Y007326D01*
X023345Y007294D01*
X023304Y007259D01*
X023265Y007222D01*
X023229Y007182D01*
X023236Y007176D01*
X023272Y007216D01*
X023310Y007253D01*
X023351Y007287D01*
X023394Y007318D01*
X023439Y007347D01*
X023486Y007372D01*
X023534Y007395D01*
X023584Y007414D01*
X023635Y007430D01*
X023686Y007442D01*
X023739Y007451D01*
X023792Y007457D01*
X023845Y007459D01*
X023845Y007450D01*
X023792Y007448D01*
X023740Y007442D01*
X023688Y007433D01*
X023637Y007421D01*
X023587Y007405D01*
X023537Y007386D01*
X023490Y007364D01*
X023443Y007339D01*
X023399Y007311D01*
X023357Y007280D01*
X023316Y007246D01*
X023278Y007209D01*
X023243Y007171D01*
X023249Y007165D01*
X023285Y007203D01*
X023322Y007239D01*
X023362Y007273D01*
X023404Y007303D01*
X023448Y007331D01*
X023494Y007356D01*
X023541Y007378D01*
X023590Y007397D01*
X023639Y007412D01*
X023690Y007425D01*
X023741Y007433D01*
X023793Y007439D01*
X023845Y007441D01*
X023845Y007432D01*
X023789Y007430D01*
X023734Y007423D01*
X023679Y007413D01*
X023625Y007399D01*
X023572Y007381D01*
X023521Y007359D01*
X023471Y007334D01*
X023423Y007305D01*
X023378Y007273D01*
X023335Y007238D01*
X023294Y007200D01*
X023256Y007159D01*
X023263Y007153D01*
X023300Y007194D01*
X023341Y007231D01*
X023383Y007266D01*
X023428Y007298D01*
X023476Y007326D01*
X023525Y007351D01*
X023576Y007373D01*
X023628Y007390D01*
X023681Y007404D01*
X023735Y007414D01*
X023790Y007421D01*
X023845Y007423D01*
X023845Y007414D01*
X023791Y007412D01*
X023737Y007406D01*
X023683Y007396D01*
X023630Y007382D01*
X023579Y007364D01*
X023529Y007343D01*
X023480Y007318D01*
X023433Y007290D01*
X023389Y007259D01*
X023347Y007225D01*
X023307Y007187D01*
X023270Y007147D01*
X023205Y006106D02*
X023274Y006163D01*
X023273Y006163D02*
X023310Y006123D01*
X023349Y006085D01*
X023391Y006051D01*
X023435Y006019D01*
X023481Y005991D01*
X023530Y005966D01*
X023580Y005945D01*
X023631Y005927D01*
X023684Y005914D01*
X023737Y005904D01*
X023791Y005897D01*
X023845Y005895D01*
X023846Y005806D01*
X023845Y005805D01*
X023789Y005807D01*
X023733Y005813D01*
X023678Y005823D01*
X023623Y005836D01*
X023570Y005853D01*
X023517Y005873D01*
X023466Y005897D01*
X023417Y005924D01*
X023370Y005955D01*
X023325Y005988D01*
X023282Y006024D01*
X023242Y006063D01*
X023204Y006105D01*
X023211Y006111D01*
X023248Y006070D01*
X023288Y006031D01*
X023330Y005995D01*
X023375Y005962D01*
X023422Y005932D01*
X023470Y005905D01*
X023521Y005882D01*
X023573Y005861D01*
X023626Y005845D01*
X023680Y005832D01*
X023734Y005822D01*
X023789Y005816D01*
X023845Y005814D01*
X023845Y005823D01*
X023790Y005825D01*
X023735Y005831D01*
X023681Y005840D01*
X023628Y005853D01*
X023576Y005870D01*
X023524Y005890D01*
X023475Y005913D01*
X023426Y005940D01*
X023380Y005969D01*
X023336Y006002D01*
X023294Y006038D01*
X023255Y006076D01*
X023218Y006117D01*
X023225Y006122D01*
X023261Y006082D01*
X023300Y006044D01*
X023342Y006009D01*
X023385Y005977D01*
X023431Y005947D01*
X023479Y005921D01*
X023528Y005898D01*
X023578Y005878D01*
X023630Y005862D01*
X023683Y005849D01*
X023737Y005840D01*
X023791Y005834D01*
X023845Y005832D01*
X023845Y005841D01*
X023791Y005843D01*
X023738Y005849D01*
X023685Y005858D01*
X023633Y005871D01*
X023581Y005887D01*
X023531Y005906D01*
X023483Y005929D01*
X023436Y005955D01*
X023390Y005984D01*
X023347Y006016D01*
X023306Y006051D01*
X023268Y006088D01*
X023232Y006128D01*
X023239Y006134D01*
X023274Y006095D01*
X023312Y006058D01*
X023353Y006023D01*
X023396Y005992D01*
X023440Y005963D01*
X023487Y005937D01*
X023535Y005915D01*
X023584Y005895D01*
X023635Y005879D01*
X023687Y005867D01*
X023739Y005858D01*
X023792Y005852D01*
X023845Y005850D01*
X023845Y005859D01*
X023793Y005861D01*
X023740Y005867D01*
X023689Y005876D01*
X023638Y005888D01*
X023587Y005904D01*
X023538Y005923D01*
X023491Y005945D01*
X023445Y005971D01*
X023401Y005999D01*
X023359Y006030D01*
X023318Y006064D01*
X023281Y006101D01*
X023246Y006140D01*
X023252Y006146D01*
X023287Y006107D01*
X023325Y006071D01*
X023364Y006037D01*
X023406Y006006D01*
X023450Y005978D01*
X023495Y005953D01*
X023542Y005931D01*
X023590Y005912D01*
X023640Y005897D01*
X023690Y005884D01*
X023742Y005876D01*
X023793Y005870D01*
X023845Y005868D01*
X023845Y005877D01*
X023794Y005879D01*
X023743Y005884D01*
X023692Y005893D01*
X023642Y005905D01*
X023593Y005921D01*
X023546Y005939D01*
X023499Y005961D01*
X023454Y005986D01*
X023411Y006014D01*
X023370Y006044D01*
X023331Y006077D01*
X023294Y006113D01*
X023259Y006151D01*
X023266Y006157D01*
X023303Y006116D01*
X023343Y006078D01*
X023385Y006044D01*
X023430Y006012D01*
X023477Y005983D01*
X023526Y005958D01*
X023577Y005937D01*
X023628Y005919D01*
X023682Y005905D01*
X023736Y005895D01*
X023790Y005888D01*
X023845Y005886D01*
D23*
X011600Y023250D02*
X011600Y024000D01*
X011561Y024002D01*
X011522Y024008D01*
X011484Y024017D01*
X011447Y024030D01*
X011411Y024047D01*
X011378Y024067D01*
X011346Y024091D01*
X011317Y024117D01*
X011291Y024146D01*
X011267Y024178D01*
X011247Y024211D01*
X011230Y024247D01*
X011217Y024284D01*
X011208Y024322D01*
X011202Y024361D01*
X011200Y024400D01*
X011202Y024439D01*
X011208Y024478D01*
X011217Y024516D01*
X011230Y024553D01*
X011247Y024589D01*
X011267Y024622D01*
X011291Y024654D01*
X011317Y024683D01*
X011346Y024709D01*
X011378Y024733D01*
X011411Y024753D01*
X011447Y024770D01*
X011484Y024783D01*
X011522Y024792D01*
X011561Y024798D01*
X011600Y024800D01*
X011600Y025550D01*
X003600Y025550D01*
X003600Y023250D01*
X011600Y023250D01*
M02*
